<?xml version="1.0" encoding="UTF-8"?>
<!DOCTYPE svg PUBLIC "-//W3C//DTD SVG 1.1//EN" "http://www.w3.org/Graphics/SVG/1.1/DTD/svg11.dtd">
<svg xmlns="http://www.w3.org/2000/svg" version="1.1" width="500px" height="500px" style="shape-rendering:geometricPrecision; text-rendering:geometricPrecision; image-rendering:optimizeQuality; fill-rule:evenodd; clip-rule:evenodd" xmlns:xlink="http://www.w3.org/1999/xlink">
<g><path style="opacity:0.559" fill="#939393" d="M 262.5,19.5 C 251.15,19.4074 239.817,19.7407 228.5,20.5C 234.754,18.9463 241.254,18.2796 248,18.5C 253.012,18.5007 257.845,18.8341 262.5,19.5 Z"/></g>
<g><path style="opacity:0.994" fill="#5e5e5e" d="M 262.5,19.5 C 266.984,19.4258 271.317,20.0925 275.5,21.5C 277.438,23.1628 279.772,23.8294 282.5,23.5C 300.34,27.9179 316.007,36.2512 329.5,48.5C 330.419,51.0892 332.086,53.0892 334.5,54.5C 336.129,55.6253 337.629,56.9586 339,58.5C 341.358,61.2223 343.191,64.2223 344.5,67.5C 344.857,69.5891 345.523,71.5891 346.5,73.5C 347.689,75.3634 349.022,77.0301 350.5,78.5C 353.237,81.9831 354.903,85.9831 355.5,90.5C 355.41,93.1522 356.076,95.4855 357.5,97.5C 358.451,98.9187 358.784,100.585 358.5,102.5C 357.715,106.359 357.882,110.025 359,113.5C 359.5,132.164 359.667,150.83 359.5,169.5C 356.686,170.165 353.686,170.498 350.5,170.5C 347.087,170.483 344.087,169.816 341.5,168.5C 341.667,148.831 341.5,129.164 341,109.5C 340.768,108.263 340.268,107.263 339.5,106.5C 338.167,101.833 336.833,97.1667 335.5,92.5C 335.146,90.4588 335.146,88.6255 335.5,87C 334.473,86.4867 333.473,85.9867 332.5,85.5C 332.573,83.9731 331.906,82.9731 330.5,82.5C 328.808,80.7952 327.475,78.7952 326.5,76.5C 326.573,74.9731 325.906,73.9731 324.5,73.5C 320.5,69.5 316.5,65.5 312.5,61.5C 311.738,59.7376 310.404,58.7376 308.5,58.5C 298.526,52.6789 288.192,47.6789 277.5,43.5C 275.485,42.0762 273.152,41.4095 270.5,41.5C 268.379,41.6747 266.379,41.3414 264.5,40.5C 259.912,39.0722 255.079,38.4055 250,38.5C 246.979,38.5022 244.146,38.8356 241.5,39.5C 214.431,42.4514 191.598,53.7847 173,73.5C 168.033,80.4406 163.866,87.7739 160.5,95.5C 158.926,97.1016 158.259,99.1016 158.5,101.5C 156.825,104.507 156.159,107.84 156.5,111.5C 156.83,131.007 156.497,150.341 155.5,169.5C 149.5,169.5 143.5,169.5 137.5,169.5C 137.5,149.5 137.5,129.5 137.5,109.5C 137.815,102.924 139.148,96.5909 141.5,90.5C 143.655,88.3826 144.655,85.716 144.5,82.5C 150.125,68.8791 158.458,57.2124 169.5,47.5C 171.749,46.9202 173.415,45.5869 174.5,43.5C 185.255,34.2879 197.589,27.9546 211.5,24.5C 214.152,24.5905 216.485,23.9238 218.5,22.5C 221.544,20.9886 224.878,20.322 228.5,20.5C 239.817,19.7407 251.15,19.4074 262.5,19.5 Z"/></g>
<g><path style="opacity:0.282" fill="#969696" d="M 275.5,21.5 C 278.067,21.7215 280.401,22.3882 282.5,23.5C 279.772,23.8294 277.438,23.1628 275.5,21.5 Z"/></g>
<g><path style="opacity:0.404" fill="#969696" d="M 218.5,22.5 C 216.485,23.9238 214.152,24.5905 211.5,24.5C 213.515,23.0762 215.848,22.4095 218.5,22.5 Z"/></g>
<g><path style="opacity:0.147" fill="#b5b5b5" d="M 241.5,39.5 C 244.146,38.8356 246.979,38.5022 250,38.5C 255.079,38.4055 259.912,39.0722 264.5,40.5C 256.854,39.793 249.187,39.4597 241.5,39.5 Z"/></g>
<g><path style="opacity:0.333" fill="#a3a3a3" d="M 270.5,41.5 C 273.152,41.4095 275.485,42.0762 277.5,43.5C 274.848,43.5905 272.515,42.9238 270.5,41.5 Z"/></g>
<g><path style="opacity:0.373" fill="#939393" d="M 174.5,43.5 C 173.415,45.5869 171.749,46.9202 169.5,47.5C 170.585,45.4131 172.251,44.0798 174.5,43.5 Z"/></g>
<g><path style="opacity:0.278" fill="#999999" d="M 257.5,48.5 C 248.818,48.5205 240.152,48.8539 231.5,49.5C 236.766,48.0816 242.266,47.4149 248,47.5C 251.352,47.5018 254.518,47.8351 257.5,48.5 Z"/></g>
<g><path style="opacity:0.996" fill="#5c5d5d" d="M 257.5,48.5 C 262.122,48.1561 266.455,48.8227 270.5,50.5C 272.515,51.9238 274.848,52.5905 277.5,52.5C 285.864,54.8499 293.531,58.5166 300.5,63.5C 300.973,64.9063 301.973,65.573 303.5,65.5C 305.754,66.1237 307.421,67.457 308.5,69.5C 309.27,71.9354 310.937,73.2687 313.5,73.5C 313.738,75.4044 314.738,76.7377 316.5,77.5C 317.08,79.7488 318.413,81.4154 320.5,82.5C 320.427,84.0269 321.094,85.0269 322.5,85.5C 322.427,87.0269 323.094,88.0269 324.5,88.5C 324.682,90.5914 324.348,92.5914 323.5,94.5C 325.091,97.2682 327.091,99.6016 329.5,101.5C 329.41,104.152 330.076,106.485 331.5,108.5C 332.466,129.133 332.799,149.8 332.5,170.5C 325.646,170.824 318.979,170.491 312.5,169.5C 312.667,151.83 312.5,134.164 312,116.5C 311.802,114.618 311.302,112.952 310.5,111.5C 304.688,92.354 292.355,79.354 273.5,72.5C 271.383,70.3455 268.716,69.3455 265.5,69.5C 263.097,69.552 260.764,69.2186 258.5,68.5C 251.491,65.8874 244.491,65.8874 237.5,68.5C 233.521,69.4969 229.521,70.4969 225.5,71.5C 224.127,71.6567 222.793,71.49 221.5,71C 222.696,70.3457 222.696,69.8457 221.5,69.5C 219.679,70.7277 218.679,72.3944 218.5,74.5C 203.316,81.353 192.983,92.6863 187.5,108.5C 186.732,109.263 186.232,110.263 186,111.5C 185.5,130.83 185.333,150.164 185.5,169.5C 178.833,169.5 172.167,169.5 165.5,169.5C 165.5,150.167 165.5,130.833 165.5,111.5C 166.548,99.6645 170.881,89.3311 178.5,80.5C 180.587,79.4154 181.92,77.7488 182.5,75.5C 188.754,67.9117 196.42,62.2451 205.5,58.5C 206.822,58.33 207.989,58.6634 209,59.5C 210.771,57.7092 212.604,56.0425 214.5,54.5C 220.166,53.6096 225.5,51.943 230.5,49.5C 230.833,49.5 231.167,49.5 231.5,49.5C 240.152,48.8539 248.818,48.5205 257.5,48.5 Z"/></g>
<g><path style="opacity:0.173" fill="#b9b9b9" d="M 329.5,48.5 C 331.914,49.9108 333.581,51.9108 334.5,54.5C 332.086,53.0892 330.419,51.0892 329.5,48.5 Z"/></g>
<g><path style="opacity:0.016" fill="#cbcbcb" d="M 270.5,50.5 C 273.152,50.4095 275.485,51.0762 277.5,52.5C 274.848,52.5905 272.515,51.9238 270.5,50.5 Z"/></g>
<g><path style="opacity:0.612" fill="#989898" d="M 230.5,49.5 C 225.5,51.943 220.166,53.6096 214.5,54.5C 219.395,51.7347 224.729,50.0681 230.5,49.5 Z"/></g>
<g><path style="opacity:0.714" fill="#868686" d="M 214.5,54.5 C 212.604,56.0425 210.771,57.7092 209,59.5C 207.989,58.6634 206.822,58.33 205.5,58.5C 208.088,56.4082 211.088,55.0749 214.5,54.5 Z"/></g>
<g><path style="opacity:0.353" fill="#b8b8b8" d="M 308.5,58.5 C 310.404,58.7376 311.738,59.7376 312.5,61.5C 310.596,61.2624 309.262,60.2624 308.5,58.5 Z"/></g>
<g><path style="opacity:0.114" fill="#c2c2c2" d="M 300.5,63.5 C 302.027,63.427 303.027,64.0937 303.5,65.5C 301.973,65.573 300.973,64.9063 300.5,63.5 Z"/></g>
<g><path style="opacity:0.192" fill="#a9a9a9" d="M 258.5,68.5 C 251.5,67.1667 244.5,67.1667 237.5,68.5C 244.491,65.8874 251.491,65.8874 258.5,68.5 Z"/></g>
<g><path style="opacity:0.482" fill="#adadad" d="M 265.5,69.5 C 268.716,69.3455 271.383,70.3455 273.5,72.5C 270.603,71.871 267.936,70.871 265.5,69.5 Z"/></g>
<g><path style="opacity:0.886" fill="#828282" d="M 225.5,71.5 C 223.351,72.7362 221.018,73.7362 218.5,74.5C 218.679,72.3944 219.679,70.7277 221.5,69.5C 222.696,69.8457 222.696,70.3457 221.5,71C 222.793,71.49 224.127,71.6567 225.5,71.5 Z"/></g>
<g><path style="opacity:0.275" fill="#aeaeae" d="M 308.5,69.5 C 310.749,70.0798 312.415,71.4131 313.5,73.5C 310.937,73.2687 309.27,71.9354 308.5,69.5 Z"/></g>
<g><path style="opacity:0.853" fill="#868686" d="M 344.5,67.5 C 346.223,69.2528 347.723,71.2528 349,73.5C 350.009,75.0249 350.509,76.6916 350.5,78.5C 349.022,77.0301 347.689,75.3634 346.5,73.5C 345.523,71.5891 344.857,69.5891 344.5,67.5 Z"/></g>
<g><path style="opacity:0.255" fill="#bbbbbb" d="M 313.5,73.5 C 315.262,74.2623 316.262,75.5956 316.5,77.5C 314.738,76.7377 313.738,75.4044 313.5,73.5 Z"/></g>
<g><path style="opacity:0.008" fill="#d7d7d7" d="M 324.5,73.5 C 325.906,73.9731 326.573,74.9731 326.5,76.5C 325.094,76.0269 324.427,75.0269 324.5,73.5 Z"/></g>
<g><path style="opacity:0.624" fill="#949494" d="M 182.5,75.5 C 181.92,77.7488 180.587,79.4154 178.5,80.5C 179.08,78.2512 180.413,76.5846 182.5,75.5 Z"/></g>
<g><path style="opacity:0.502" fill="#a2a2a2" d="M 316.5,77.5 C 318.587,78.5846 319.92,80.2512 320.5,82.5C 318.413,81.4154 317.08,79.7488 316.5,77.5 Z"/></g>
<g><path style="opacity:0.161" fill="#b9b9b9" d="M 320.5,82.5 C 321.906,82.9731 322.573,83.9731 322.5,85.5C 321.094,85.0269 320.427,84.0269 320.5,82.5 Z"/></g>
<g><path style="opacity:0.102" fill="#c4c4c4" d="M 330.5,82.5 C 331.906,82.9731 332.573,83.9731 332.5,85.5C 331.094,85.0269 330.427,84.0269 330.5,82.5 Z"/></g>
<g><path style="opacity:0.106" fill="#c5c5c5" d="M 322.5,85.5 C 323.906,85.9731 324.573,86.9731 324.5,88.5C 323.094,88.0269 322.427,87.0269 322.5,85.5 Z"/></g>
<g><path style="opacity:0.6" fill="#999999" d="M 144.5,82.5 C 144.655,85.716 143.655,88.3826 141.5,90.5C 141.98,87.5568 142.98,84.8902 144.5,82.5 Z"/></g>
<g><path style="opacity:0.612" fill="#989898" d="M 332.5,85.5 C 333.473,85.9867 334.473,86.4867 335.5,87C 335.146,88.6255 335.146,90.4588 335.5,92.5C 334.264,90.351 333.264,88.0177 332.5,85.5 Z"/></g>
<g><path style="opacity:0.932" fill="#787878" d="M 324.5,88.5 C 327.125,92.3607 328.792,96.694 329.5,101.5C 327.091,99.6016 325.091,97.2682 323.5,94.5C 324.348,92.5914 324.682,90.5914 324.5,88.5 Z"/></g>
<g><path style="opacity:0.29" fill="#a3a3a3" d="M 355.5,90.5 C 356.924,92.5145 357.59,94.8478 357.5,97.5C 356.076,95.4855 355.41,93.1522 355.5,90.5 Z"/></g>
<g><path style="opacity:0.184" fill="#b2b2b2" d="M 160.5,95.5 C 160.405,97.7857 159.738,99.7857 158.5,101.5C 158.259,99.1016 158.926,97.1016 160.5,95.5 Z"/></g>
<g><path style="opacity:0.173" fill="#aeaeae" d="M 158.5,101.5 C 158.247,105.04 157.581,108.373 156.5,111.5C 156.159,107.84 156.825,104.507 158.5,101.5 Z"/></g>
<g><path style="opacity:0.188" fill="#adadad" d="M 329.5,101.5 C 330.924,103.515 331.59,105.848 331.5,108.5C 330.076,106.485 329.41,104.152 329.5,101.5 Z"/></g>
<g><path style="opacity:0.3" fill="#9f9d9f" d="M 137.5,109.5 C 137.5,129.5 137.5,149.5 137.5,169.5C 143.5,169.5 149.5,169.5 155.5,169.5C 149.355,170.49 143.022,170.823 136.5,170.5C 136.17,149.993 136.503,129.66 137.5,109.5 Z"/></g>
<g><path style="opacity:0.053" fill="#d8d8d8" d="M 339.5,106.5 C 340.268,107.263 340.768,108.263 341,109.5C 341.5,129.164 341.667,148.831 341.5,168.5C 340.788,147.98 340.121,127.314 339.5,106.5 Z"/></g>
<g><path style="opacity:0.212" fill="#a1a0a1" d="M 165.5,111.5 C 165.5,130.833 165.5,150.167 165.5,169.5C 172.167,169.5 178.833,169.5 185.5,169.5C 178.687,170.491 171.687,170.825 164.5,170.5C 164.17,150.66 164.503,130.993 165.5,111.5 Z"/></g>
<g><path style="opacity:0.051" fill="#dbdbdb" d="M 187.5,108.5 C 186.88,128.981 186.213,149.314 185.5,169.5C 185.333,150.164 185.5,130.83 186,111.5C 186.232,110.263 186.732,109.263 187.5,108.5 Z"/></g>
<g><path style="opacity:0.437" fill="#979797" d="M 358.5,102.5 C 359.956,107.934 360.79,113.6 361,119.5C 361.667,134.5 361.667,149.5 361,164.5C 360.802,166.382 360.302,168.048 359.5,169.5C 359.667,150.83 359.5,132.164 359,113.5C 357.882,110.025 357.715,106.359 358.5,102.5 Z"/></g>
<g><path style="opacity:0.285" fill="#999999" d="M 310.5,111.5 C 311.302,112.952 311.802,114.618 312,116.5C 312.5,134.164 312.667,151.83 312.5,169.5C 311.743,150.324 311.076,130.99 310.5,111.5 Z"/></g>
<g><path style="opacity:0.414" fill="#dd9d9e" d="M 155.5,191.5 C 155.5,185.833 155.5,180.167 155.5,174.5C 141.833,174.5 128.167,174.5 114.5,174.5C 114.5,205.833 114.5,237.167 114.5,268.5C 114.5,268.833 114.5,269.167 114.5,269.5C 113.336,237.669 113.169,205.669 114,173.5C 128.096,172.697 142.263,172.697 156.5,173.5C 156.823,179.69 156.49,185.69 155.5,191.5 Z"/></g>
<g><path style="opacity:0.373" fill="#d39593" d="M 332.5,183.5 C 332.806,180.615 332.473,177.948 331.5,175.5C 286.336,174.501 241.003,174.168 195.5,174.5C 195.5,179.5 195.5,184.5 195.5,189.5C 194.512,184.36 194.179,179.026 194.5,173.5C 240.507,172.013 286.507,172.18 332.5,174C 333.818,177.269 333.818,180.435 332.5,183.5 Z"/></g>
<g><path style="opacity:0.89" fill="#c33139" d="M 331.5,175.5 C 331.5,179.833 331.5,184.167 331.5,188.5C 318.833,188.5 306.167,188.5 293.5,188.5C 305.655,187.505 317.989,187.171 330.5,187.5C 330.793,183.563 330.46,179.73 329.5,176C 285.168,175.5 240.835,175.333 196.5,175.5C 196.5,179.5 196.5,183.5 196.5,187.5C 220.672,187.169 244.672,187.502 268.5,188.5C 268.5,188.833 268.5,189.167 268.5,189.5C 244.167,189.5 219.833,189.5 195.5,189.5C 195.5,184.5 195.5,179.5 195.5,174.5C 241.003,174.168 286.336,174.501 331.5,175.5 Z"/></g>
<g><path style="opacity:1" fill="#ec1e26" d="M 181.5,175.5 C 182.471,184.416 182.804,193.416 182.5,202.5C 212.157,201.751 241.823,201.251 271.5,201C 272.357,200.311 273.023,199.478 273.5,198.5C 272.756,195.557 272.256,192.557 272,189.5C 270.989,188.663 269.822,188.33 268.5,188.5C 244.672,187.502 220.672,187.169 196.5,187.5C 196.5,183.5 196.5,179.5 196.5,175.5C 240.835,175.333 285.168,175.5 329.5,176C 330.46,179.73 330.793,183.563 330.5,187.5C 317.989,187.171 305.655,187.505 293.5,188.5C 292.206,189.29 291.039,190.29 290,191.5C 289.333,194.833 289.333,198.167 290,201.5C 290.383,202.056 290.883,202.389 291.5,202.5C 296.343,202.354 301.343,203.02 306.5,204.5C 302.794,206.681 298.794,208.181 294.5,209C 272.001,209.25 249.501,209.083 227,208.5C 216.5,208.833 206,209.167 195.5,209.5C 196.025,210.192 196.692,210.692 197.5,211C 187.506,211.5 177.506,211.666 167.5,211.5C 166.505,199.678 166.172,187.678 166.5,175.5C 171.5,175.5 176.5,175.5 181.5,175.5 Z"/></g>
<g><path style="opacity:0.305" fill="#dc7f81" d="M 185.5,174.5 C 185.5,182.5 185.5,190.5 185.5,198.5C 184.671,191.345 184.171,184.011 184,176.5C 183.329,175.748 182.496,175.414 181.5,175.5C 176.36,174.512 171.026,174.179 165.5,174.5C 165.5,187.5 165.5,200.5 165.5,213.5C 224.167,213.5 282.833,213.5 341.5,213.5C 341.5,213.833 341.5,214.167 341.5,214.5C 340.167,214.5 338.833,214.5 337.5,214.5C 279.822,214.966 222.155,214.966 164.5,214.5C 164.167,200.817 164.501,187.15 165.5,173.5C 166.167,173.167 166.833,172.833 167.5,172.5C 173.631,173.129 179.631,173.795 185.5,174.5 Z"/></g>
<g><path style="opacity:1" fill="#d02a33" d="M 356.5,357.5 C 358.607,356.532 360.941,356.198 363.5,356.5C 369.167,356.5 374.833,356.5 380.5,356.5C 380.5,355.167 380.5,353.833 380.5,352.5C 380.833,294.163 380.5,235.83 379.5,177.5C 367.884,176.521 356.218,176.188 344.5,176.5C 344.54,179.881 344.207,183.214 343.5,186.5C 351.142,187.192 358.808,187.692 366.5,188C 367,188.5 367.5,189 368,189.5C 368.5,240.499 368.667,291.499 368.5,342.5C 367.833,342.5 367.5,342.833 367.5,343.5C 364.221,344.492 360.888,344.659 357.5,344C 356.944,343.617 356.611,343.117 356.5,342.5C 360.042,342.813 363.375,342.479 366.5,341.5C 366.832,290.664 366.499,239.997 365.5,189.5C 358.018,188.508 350.352,188.175 342.5,188.5C 342.5,184.5 342.5,180.5 342.5,176.5C 355.333,175.176 368.167,175.176 381,176.5C 381.5,236.832 381.667,297.166 381.5,357.5C 373.167,357.5 364.833,357.5 356.5,357.5 Z"/></g>
<g><path style="opacity:0.294" fill="#d5888b" d="M 358.5,359.5 C 357.833,359.5 357.167,359.5 356.5,359.5C 356.5,359.167 356.5,358.833 356.5,358.5C 365.167,358.5 373.833,358.5 382.5,358.5C 382.5,297.167 382.5,235.833 382.5,174.5C 368.99,174.171 355.656,174.504 342.5,175.5C 341.515,179.634 341.182,183.968 341.5,188.5C 340.513,183.695 340.179,178.695 340.5,173.5C 354.665,172.503 368.832,172.503 383,173.5C 383.667,235.5 383.667,297.5 383,359.5C 374.807,360.19 366.64,360.19 358.5,359.5 Z"/></g>
<g><path style="opacity:0.901" fill="#bb2b34" d="M 356.5,358.5 C 356.5,358.167 356.5,357.833 356.5,357.5C 364.833,357.5 373.167,357.5 381.5,357.5C 381.667,297.166 381.5,236.832 381,176.5C 368.167,175.176 355.333,175.176 342.5,176.5C 342.5,176.167 342.5,175.833 342.5,175.5C 355.656,174.504 368.99,174.171 382.5,174.5C 382.5,235.833 382.5,297.167 382.5,358.5C 373.833,358.5 365.167,358.5 356.5,358.5 Z"/></g>
<g><path style="opacity:0.46" fill="#c36165" d="M 331.5,175.5 C 332.473,177.948 332.806,180.615 332.5,183.5C 333.38,185.389 333.38,187.389 332.5,189.5C 319.99,190.801 307.656,190.801 295.5,189.5C 294.833,189.5 294.167,189.5 293.5,189.5C 293.5,189.167 293.5,188.833 293.5,188.5C 306.167,188.5 318.833,188.5 331.5,188.5C 331.5,184.167 331.5,179.833 331.5,175.5 Z"/></g>
<g><path style="opacity:0.341" fill="#b75459" d="M 342.5,175.5 C 342.5,175.833 342.5,176.167 342.5,176.5C 342.5,180.5 342.5,184.5 342.5,188.5C 350.352,188.175 358.018,188.508 365.5,189.5C 365.167,189.5 364.833,189.5 364.5,189.5C 357.589,189.409 350.923,189.742 344.5,190.5C 343.261,190.058 342.261,189.391 341.5,188.5C 341.182,183.968 341.515,179.634 342.5,175.5 Z"/></g>
<g><path style="opacity:1" fill="#d62531" d="M 153.5,176.5 C 154.823,180.9 154.823,185.4 153.5,190C 144.99,190.171 136.657,190.671 128.5,191.5C 127.523,194.287 127.19,197.287 127.5,200.5C 126.235,199.486 125.569,197.986 125.5,196C 125.34,193.53 126.007,191.364 127.5,189.5C 135.838,189.872 144.172,189.372 152.5,188C 153.46,184.27 153.793,180.437 153.5,176.5 Z"/></g>
<g><path style="opacity:0.144" fill="#f0a2a5" d="M 128.5,191.5 C 137.5,191.5 146.5,191.5 155.5,191.5C 147.01,192.33 138.343,192.83 129.5,193C 128.167,195.333 128.167,197.667 129.5,200C 138.343,200.17 147.01,200.67 155.5,201.5C 155.167,201.5 154.833,201.5 154.5,201.5C 145.833,201.5 137.167,201.5 128.5,201.5C 127.833,201.5 127.5,201.167 127.5,200.5C 127.19,197.287 127.523,194.287 128.5,191.5 Z"/></g>
<g><path style="opacity:1" fill="#ea2027" d="M 380.5,352.5 C 379.625,350.432 378.459,348.432 377,346.5C 376,347.833 375,347.833 374,346.5C 373.608,343.812 373.108,341.145 372.5,338.5C 372.453,337 373.119,336 374.5,335.5C 375.5,289.171 375.833,242.838 375.5,196.5C 374.5,196.5 373.5,196.5 372.5,196.5C 372.5,242.5 372.5,288.5 372.5,334.5C 371.5,334.5 370.5,334.5 369.5,334.5C 369.806,337.385 369.473,340.052 368.5,342.5C 368.667,291.499 368.5,240.499 368,189.5C 367.5,189 367,188.5 366.5,188C 358.808,187.692 351.142,187.192 343.5,186.5C 344.207,183.214 344.54,179.881 344.5,176.5C 356.218,176.188 367.884,176.521 379.5,177.5C 380.5,235.83 380.833,294.163 380.5,352.5 Z"/></g>
<g><path style="opacity:0.083" fill="#f8c6ca" d="M 364.5,189.5 C 364.833,189.5 365.167,189.5 365.5,189.5C 366.499,239.997 366.832,290.664 366.5,341.5C 365.833,341.5 365.167,341.5 364.5,341.5C 365.833,290.833 365.833,240.167 364.5,189.5 Z"/></g>
<g><path style="opacity:0.18" fill="#e7a2a5" d="M 185.5,174.5 C 186.492,182.316 186.826,190.316 186.5,198.5C 214.167,198.5 241.833,198.5 269.5,198.5C 241.5,199.833 213.5,199.833 185.5,198.5C 185.5,190.5 185.5,182.5 185.5,174.5 Z"/></g>
<g><path style="opacity:0.187" fill="#e39aa0" d="M 293.5,189.5 C 294.167,189.5 294.833,189.5 295.5,189.5C 294.597,192.391 294.264,195.391 294.5,198.5C 315.34,198.169 336.007,198.503 356.5,199.5C 335.5,199.5 314.5,199.5 293.5,199.5C 293.5,196.167 293.5,192.833 293.5,189.5 Z"/></g>
<g><path style="opacity:1" fill="#d22633" d="M 181.5,175.5 C 182.496,175.414 183.329,175.748 184,176.5C 184.171,184.011 184.671,191.345 185.5,198.5C 213.5,199.833 241.5,199.833 269.5,198.5C 270.158,197.207 270.492,195.707 270.5,194C 270.431,192.014 269.765,190.514 268.5,189.5C 268.5,189.167 268.5,188.833 268.5,188.5C 269.822,188.33 270.989,188.663 272,189.5C 272.256,192.557 272.756,195.557 273.5,198.5C 273.023,199.478 272.357,200.311 271.5,201C 241.823,201.251 212.157,201.751 182.5,202.5C 182.804,193.416 182.471,184.416 181.5,175.5 Z"/></g>
<g><path style="opacity:0.11" fill="#df9396" d="M 268.5,189.5 C 269.765,190.514 270.431,192.014 270.5,194C 270.492,195.707 270.158,197.207 269.5,198.5C 269.736,195.391 269.403,192.391 268.5,189.5 Z"/></g>
<g><path style="opacity:1" fill="#d82530" d="M 293.5,188.5 C 293.5,188.833 293.5,189.167 293.5,189.5C 293.5,192.833 293.5,196.167 293.5,199.5C 313.993,200.497 334.66,200.831 355.5,200.5C 355.831,229.005 355.498,257.338 354.5,285.5C 354.5,257.5 354.5,229.5 354.5,201.5C 333.424,201.179 312.424,201.512 291.5,202.5C 290.883,202.389 290.383,202.056 290,201.5C 289.333,198.167 289.333,194.833 290,191.5C 291.039,190.29 292.206,189.29 293.5,188.5 Z"/></g>
<g><path style="opacity:1" fill="#d5252e" d="M 129.5,202.5 C 137.5,202.5 145.5,202.5 153.5,202.5C 153.5,204.833 153.5,207.167 153.5,209.5C 152.539,207.735 152.205,205.735 152.5,203.5C 144.648,203.825 136.982,203.492 129.5,202.5 Z"/></g>
<g><path style="opacity:1" fill="#e72127" d="M 354.5,285.5 C 350.958,285.813 347.625,285.479 344.5,284.5C 347.5,284.5 350.5,284.5 353.5,284.5C 353.769,282.571 353.269,280.905 352,279.5C 351.667,256.167 351.333,232.833 351,209.5C 349.812,208.437 349.312,207.103 349.5,205.5C 335.5,205.5 321.5,205.5 307.5,205.5C 307.5,206.5 307.5,207.5 307.5,208.5C 316.833,208.5 326.167,208.5 335.5,208.5C 335.5,209.5 335.5,210.5 335.5,211.5C 337.735,211.205 339.735,211.539 341.5,212.5C 283.331,212.832 225.331,212.499 167.5,211.5C 177.506,211.666 187.506,211.5 197.5,211C 196.692,210.692 196.025,210.192 195.5,209.5C 206,209.167 216.5,208.833 227,208.5C 249.501,209.083 272.001,209.25 294.5,209C 298.794,208.181 302.794,206.681 306.5,204.5C 301.343,203.02 296.343,202.354 291.5,202.5C 312.424,201.512 333.424,201.179 354.5,201.5C 354.5,229.5 354.5,257.5 354.5,285.5 Z"/></g>
<g><path style="opacity:0.716" fill="#c95a5b" d="M 293.5,199.5 C 314.5,199.5 335.5,199.5 356.5,199.5C 357.83,228.669 357.83,258.003 356.5,287.5C 351.703,288.802 347.036,288.802 342.5,287.5C 342.5,279.167 342.5,270.833 342.5,262.5C 343.167,269.833 343.833,277.167 344.5,284.5C 347.625,285.479 350.958,285.813 354.5,285.5C 355.498,257.338 355.831,229.005 355.5,200.5C 334.66,200.831 313.993,200.497 293.5,199.5 Z"/></g>
<g><path style="opacity:0.917" fill="#cc232f" d="M 181.5,175.5 C 176.5,175.5 171.5,175.5 166.5,175.5C 166.172,187.678 166.505,199.678 167.5,211.5C 225.331,212.499 283.331,212.832 341.5,212.5C 341.5,212.833 341.5,213.167 341.5,213.5C 282.833,213.5 224.167,213.5 165.5,213.5C 165.5,200.5 165.5,187.5 165.5,174.5C 171.026,174.179 176.36,174.512 181.5,175.5 Z"/></g>
<g><path style="opacity:0.775" fill="#b53339" d="M 155.5,191.5 C 146.5,191.5 137.5,191.5 128.5,191.5C 136.657,190.671 144.99,190.171 153.5,190C 154.823,185.4 154.823,180.9 153.5,176.5C 141.674,175.34 129.674,175.174 117.5,176C 116.944,176.383 116.611,176.883 116.5,177.5C 115.502,207.662 115.169,237.995 115.5,268.5C 115.167,268.5 114.833,268.5 114.5,268.5C 114.5,237.167 114.5,205.833 114.5,174.5C 128.167,174.5 141.833,174.5 155.5,174.5C 155.5,180.167 155.5,185.833 155.5,191.5 Z"/></g>
<g><path style="opacity:0.301" fill="#dc8583" d="M 193.5,224.5 C 229.664,223.336 265.998,223.169 302.5,224C 303.833,228.333 303.833,232.667 302.5,237C 294.588,237.183 286.754,237.683 279,238.5C 278.86,247.215 278.693,255.882 278.5,264.5C 278.5,264.833 278.5,265.167 278.5,265.5C 278.167,265.5 277.833,265.5 277.5,265.5C 277.194,255.75 277.527,246.084 278.5,236.5C 278.833,236.5 279.167,236.5 279.5,236.5C 286.833,236.5 294.167,236.5 301.5,236.5C 301.5,232.5 301.5,228.5 301.5,224.5C 265.833,224.5 230.167,224.5 194.5,224.5C 194.167,224.5 193.833,224.5 193.5,224.5 Z"/></g>
<g><path style="opacity:0.845" fill="#c42f32" d="M 194.5,224.5 C 230.167,224.5 265.833,224.5 301.5,224.5C 301.5,228.5 301.5,232.5 301.5,236.5C 294.167,236.5 286.833,236.5 279.5,236.5C 279.5,236.167 279.5,235.833 279.5,235.5C 286.5,235.5 293.5,235.5 300.5,235.5C 300.5,232.167 300.5,228.833 300.5,225.5C 265.5,225.5 230.5,225.5 195.5,225.5C 195.5,234.833 195.5,244.167 195.5,253.5C 202.022,253.823 208.355,253.49 214.5,252.5C 215.167,248.167 215.833,243.833 216.5,239.5C 216.5,244.5 216.5,249.5 216.5,254.5C 209.167,254.5 201.833,254.5 194.5,254.5C 194.5,244.5 194.5,234.5 194.5,224.5 Z"/></g>
<g><path style="opacity:1" fill="#db232d" d="M 279.5,235.5 C 285.979,234.509 292.646,234.176 299.5,234.5C 299.5,232.167 299.5,229.833 299.5,227.5C 265.167,226.167 230.833,226.167 196.5,227.5C 196.5,235.5 196.5,243.5 196.5,251.5C 202.529,251.425 208.529,251.759 214.5,252.5C 208.355,253.49 202.022,253.823 195.5,253.5C 195.5,244.167 195.5,234.833 195.5,225.5C 230.5,225.5 265.5,225.5 300.5,225.5C 300.5,228.833 300.5,232.167 300.5,235.5C 293.5,235.5 286.5,235.5 279.5,235.5 Z"/></g>
<g><path style="opacity:1" fill="#ea1f2c" d="M 196.5,227.5 C 230.833,226.167 265.167,226.167 299.5,227.5C 265.193,227.661 230.86,227.661 196.5,227.5 Z"/></g>
<g><path style="opacity:0.164" fill="#e29797" d="M 337.5,214.5 C 338.833,214.5 340.167,214.5 341.5,214.5C 342.657,222.99 342.824,231.657 342,240.5C 338.731,241.818 335.565,241.818 332.5,240.5C 333.167,240.5 333.833,240.5 334.5,240.5C 336.764,239.781 339.097,239.448 341.5,239.5C 341.5,231.5 341.5,223.5 341.5,215.5C 339.901,215.768 338.568,215.434 337.5,214.5 Z"/></g>
<g><path style="opacity:0.935" fill="#ce242e" d="M 116.5,177.5 C 116.333,207.169 116.5,236.835 117,266.5C 120.73,267.46 124.563,267.793 128.5,267.5C 128.803,251.804 128.47,236.138 127.5,220.5C 127.818,219.353 128.484,218.519 129.5,218C 133.027,217.192 136.36,217.359 139.5,218.5C 136.287,218.19 133.287,218.523 130.5,219.5C 129.504,235.658 129.17,251.991 129.5,268.5C 124.833,268.5 120.167,268.5 115.5,268.5C 115.169,237.995 115.502,207.662 116.5,177.5 Z"/></g>
<g><path style="opacity:0.456" fill="#e88e90" d="M 130.5,219.5 C 130.5,221.167 130.5,222.833 130.5,224.5C 131.309,238.827 131.476,253.161 131,267.5C 130.626,268.416 130.126,269.25 129.5,270C 124.316,270.816 119.316,270.65 114.5,269.5C 114.5,269.167 114.5,268.833 114.5,268.5C 114.833,268.5 115.167,268.5 115.5,268.5C 120.167,268.5 124.833,268.5 129.5,268.5C 129.17,251.991 129.504,235.658 130.5,219.5 Z"/></g>
<g><path style="opacity:0.608" fill="#d16465" d="M 312.5,224.5 C 319.167,223.167 325.833,223.167 332.5,224.5C 332.5,229.833 332.5,235.167 332.5,240.5C 332.167,240.5 331.833,240.5 331.5,240.5C 331.5,235.167 331.5,229.833 331.5,224.5C 325.5,224.5 319.5,224.5 313.5,224.5C 313.167,224.5 312.833,224.5 312.5,224.5 Z"/></g>
<g><path style="opacity:0.067" fill="#fec7c9" d="M 332.5,224.5 C 333.21,229.732 333.877,235.065 334.5,240.5C 333.833,240.5 333.167,240.5 332.5,240.5C 332.5,235.167 332.5,229.833 332.5,224.5 Z"/></g>
<g><path style="opacity:0.73" fill="#be3c40" d="M 312.5,224.5 C 312.833,224.5 313.167,224.5 313.5,224.5C 313.5,235.833 313.5,247.167 313.5,258.5C 312.742,261.897 310.575,263.23 307,262.5C 305.014,262.431 303.514,261.765 302.5,260.5C 305.777,260.784 308.943,260.451 312,259.5C 312.5,247.838 312.667,236.171 312.5,224.5 Z"/></g>
<g><path style="opacity:0.999" fill="#cd2930" d="M 313.5,224.5 C 319.5,224.5 325.5,224.5 331.5,224.5C 331.5,229.833 331.5,235.167 331.5,240.5C 330.514,236.03 330.181,231.363 330.5,226.5C 325.167,226.5 319.833,226.5 314.5,226.5C 314.245,236.193 314.578,245.86 315.5,255.5C 315.36,257.03 314.693,258.03 313.5,258.5C 313.5,247.167 313.5,235.833 313.5,224.5 Z"/></g>
<g><path style="opacity:0.122" fill="#ebabaa" d="M 312.5,224.5 C 312.667,236.171 312.5,247.838 312,259.5C 308.943,260.451 305.777,260.784 302.5,260.5C 302.5,256.167 302.5,251.833 302.5,247.5C 303.483,251.298 303.817,255.298 303.5,259.5C 306.119,259.768 308.619,259.435 311,258.5C 311.169,246.993 311.669,235.659 312.5,224.5 Z"/></g>
<g><path style="opacity:0.332" fill="#e7898c" d="M 139.5,218.5 C 140.833,238.833 140.833,259.167 139.5,279.5C 131.167,279.5 122.833,279.5 114.5,279.5C 122.568,278.82 130.735,278.153 139,277.5C 139.667,258.5 139.667,239.5 139,220.5C 136.619,219.565 134.119,219.232 131.5,219.5C 131.784,221.415 131.451,223.081 130.5,224.5C 130.5,222.833 130.5,221.167 130.5,219.5C 133.287,218.523 136.287,218.19 139.5,218.5 Z"/></g>
<g><path style="opacity:1" fill="#ea1f26" d="M 153.5,176.5 C 153.793,180.437 153.46,184.27 152.5,188C 144.172,189.372 135.838,189.872 127.5,189.5C 126.007,191.364 125.34,193.53 125.5,196C 125.569,197.986 126.235,199.486 127.5,200.5C 127.5,201.167 127.833,201.5 128.5,201.5C 128.5,202.167 128.833,202.5 129.5,202.5C 136.982,203.492 144.648,203.825 152.5,203.5C 152.205,205.735 152.539,207.735 153.5,209.5C 153.5,250.5 153.5,291.5 153.5,332.5C 146.167,332.5 138.833,332.5 131.5,332.5C 138.313,331.509 145.313,331.175 152.5,331.5C 152.665,328.15 152.498,324.817 152,321.5C 150.506,322.747 149.006,322.747 147.5,321.5C 146.726,317.221 146.226,312.887 146,308.5C 144.644,307.62 143.144,307.286 141.5,307.5C 141.646,327.414 140.813,327.414 139,307.5C 138.817,310.365 138.317,313.031 137.5,315.5C 137.665,312.15 137.498,308.817 137,305.5C 136.167,304.667 135.333,303.833 134.5,303C 128.513,302.964 122.513,303.131 116.5,303.5C 116.5,295.833 116.5,288.167 116.5,280.5C 124.352,280.825 132.018,280.492 139.5,279.5C 140.5,279.5 141.5,279.5 142.5,279.5C 142.185,260.299 142.518,241.133 143.5,222C 142.928,219.926 141.595,218.76 139.5,218.5C 136.36,217.359 133.027,217.192 129.5,218C 128.484,218.519 127.818,219.353 127.5,220.5C 128.47,236.138 128.803,251.804 128.5,267.5C 124.563,267.793 120.73,267.46 117,266.5C 116.5,236.835 116.333,207.169 116.5,177.5C 116.611,176.883 116.944,176.383 117.5,176C 129.674,175.174 141.674,175.34 153.5,176.5 Z"/></g>
<g><path style="opacity:1" fill="#f01d23" d="M 143.5,214.5 C 146.93,213.755 148.597,215.089 148.5,218.5C 148.379,219.894 148.046,221.228 147.5,222.5C 148.81,241.594 150.143,260.594 151.5,279.5C 150.5,279.5 149.5,279.5 148.5,279.5C 147.332,263.271 145.998,246.937 144.5,230.5C 146.151,225.214 145.484,220.38 142.5,216C 143.056,215.617 143.389,215.117 143.5,214.5 Z"/></g>
<g><path style="opacity:0.409" fill="#e49290" d="M 183.5,224.5 C 177.5,224.5 171.5,224.5 165.5,224.5C 165.5,264.5 165.5,304.5 165.5,344.5C 165.167,344.5 164.833,344.5 164.5,344.5C 164.5,342.167 164.5,339.833 164.5,337.5C 163.33,299.445 163.33,261.445 164.5,223.5C 171.022,223.177 177.355,223.51 183.5,224.5 Z"/></g>
<g><path style="opacity:1" fill="#da2830" d="M 266.5,268.5 C 254.167,268.5 241.833,268.5 229.5,268.5C 227.023,270.416 226.023,273.083 226.5,276.5C 225.216,273.316 225.549,270.15 227.5,267C 216.839,266.5 206.172,266.333 195.5,266.5C 195.5,266.167 195.5,265.833 195.5,265.5C 205.833,265.5 216.167,265.5 226.5,265.5C 227.825,261.724 228.491,257.557 228.5,253C 228.499,248.653 228.166,244.486 227.5,240.5C 227.158,239.662 226.492,239.328 225.5,239.5C 224.486,238.235 222.986,237.569 221,237.5C 219.014,237.569 217.514,238.235 216.5,239.5C 215.833,243.833 215.167,248.167 214.5,252.5C 214.5,247.5 214.5,242.5 214.5,237.5C 212.857,237.48 211.524,238.147 210.5,239.5C 209.713,238.758 209.047,237.925 208.5,237C 215.158,236.5 221.825,236.334 228.5,236.5C 228.477,238.6 229.144,240.433 230.5,242C 229.302,249.821 229.302,257.654 230.5,265.5C 242.867,265.671 254.867,266.671 266.5,268.5 Z"/></g>
<g><path style="opacity:0.91" fill="#cd2d33" d="M 139.5,218.5 C 141.595,218.76 142.928,219.926 143.5,222C 142.518,241.133 142.185,260.299 142.5,279.5C 141.5,279.5 140.5,279.5 139.5,279.5C 140.833,259.167 140.833,238.833 139.5,218.5 Z"/></g>
<g><path style="opacity:0.944" fill="#c62e3b" d="M 128.5,201.5 C 137.167,201.5 145.833,201.5 154.5,201.5C 154.5,245.833 154.5,290.167 154.5,334.5C 147.167,334.5 139.833,334.5 132.5,334.5C 139.5,333.833 146.5,333.167 153.5,332.5C 153.5,291.5 153.5,250.5 153.5,209.5C 153.5,207.167 153.5,204.833 153.5,202.5C 145.5,202.5 137.5,202.5 129.5,202.5C 128.833,202.5 128.5,202.167 128.5,201.5 Z"/></g>
<g><path style="opacity:0.484" fill="#e1878a" d="M 154.5,201.5 C 154.833,201.5 155.167,201.5 155.5,201.5C 155.614,245.452 155.78,289.452 156,333.5C 148.099,335.287 139.932,336.12 131.5,336C 131.12,338.889 130.786,341.723 130.5,344.5C 130.5,367.167 130.5,389.833 130.5,412.5C 130.167,412.5 129.833,412.5 129.5,412.5C 129.5,386.5 129.5,360.5 129.5,334.5C 130.5,334.5 131.5,334.5 132.5,334.5C 139.833,334.5 147.167,334.5 154.5,334.5C 154.5,290.167 154.5,245.833 154.5,201.5 Z"/></g>
<g><path style="opacity:1" fill="#ec1e26" d="M 182.5,359.5 C 182.76,361.595 183.926,362.928 186,363.5C 198.347,362.645 210.681,362.312 223,362.5C 223.833,362.167 224.667,361.833 225.5,361.5C 226.593,357.892 226.76,354.225 226,350.5C 225.329,349.748 224.496,349.414 223.5,349.5C 214.348,348.506 205.015,348.173 195.5,348.5C 195.5,321.167 195.5,293.833 195.5,266.5C 206.172,266.333 216.839,266.5 227.5,267C 225.549,270.15 225.216,273.316 226.5,276.5C 227.558,277.6 228.392,278.934 229,280.5C 229.333,285.833 229.667,291.167 230,296.5C 232.802,299.146 235.968,301.146 239.5,302.5C 239.821,303.817 240.154,305.151 240.5,306.5C 238.624,308.048 237.624,310.048 237.5,312.5C 235.901,312.232 234.568,312.566 233.5,313.5C 231.173,313.753 229.173,313.086 227.5,311.5C 227.167,312.167 226.833,312.833 226.5,313.5C 229.161,320.79 229.161,328.123 226.5,335.5C 226.336,338.187 226.503,340.854 227,343.5C 227.708,344.381 228.542,345.047 229.5,345.5C 231.292,346.309 233.292,346.809 235.5,347C 245.5,347.333 255.5,347.667 265.5,348C 257.68,348.104 250.013,349.104 242.5,351C 243.978,353.039 245.978,353.872 248.5,353.5C 247.801,361.475 247.301,369.475 247,377.5C 245.837,360.179 245.003,360.179 244.5,377.5C 243.5,377.5 242.5,377.5 241.5,377.5C 241.001,371.931 241.668,366.597 243.5,361.5C 243.455,358.811 242.121,357.477 239.5,357.5C 240.078,364.713 239.412,371.713 237.5,378.5C 213.768,379.822 190.101,379.822 166.5,378.5C 166.81,375.287 166.477,372.287 165.5,369.5C 165.5,368.167 164.833,367.5 163.5,367.5C 162.486,366.235 160.986,365.569 159,365.5C 157.236,365.544 155.569,365.878 154,366.5C 153.174,377.674 153.341,388.674 154.5,399.5C 154.5,400.167 154.833,400.5 155.5,400.5C 157.607,401.468 159.941,401.802 162.5,401.5C 162.5,402.833 162.5,404.167 162.5,405.5C 163.5,405.5 164.5,405.5 165.5,405.5C 165.5,404.5 165.5,403.5 165.5,402.5C 170.544,402.173 175.544,402.506 180.5,403.5C 180.797,411.521 181.797,419.187 183.5,426.5C 183.611,427.117 183.944,427.617 184.5,428C 213.167,428.667 241.833,428.667 270.5,428C 272.429,424.744 272.929,421.244 272,417.5C 271.617,416.944 271.117,416.611 270.5,416.5C 270.158,415.662 269.492,415.328 268.5,415.5C 244.67,414.668 220.67,414.168 196.5,414C 195.62,412.644 195.286,411.144 195.5,409.5C 197.155,408.07 199.155,407.236 201.5,407C 214.409,406.823 227.242,406.323 240,405.5C 250.704,405.81 262.537,405.977 275.5,406C 276.878,407.334 278.211,407.501 279.5,406.5C 281.59,406.45 282.923,407.45 283.5,409.5C 285.167,409.833 286.833,410.167 288.5,410.5C 304.165,411.754 319.831,411.754 335.5,410.5C 337.964,408.755 340.63,407.921 343.5,408C 344.551,409.385 345.884,410.385 347.5,411C 346.13,413.833 346.464,416.5 348.5,419C 346.593,423.518 345.926,428.352 346.5,433.5C 347.5,433.5 348.5,433.5 349.5,433.5C 349.5,434.5 349.5,435.5 349.5,436.5C 348.167,436.5 346.833,436.5 345.5,436.5C 345.5,429.5 345.5,422.5 345.5,415.5C 344.167,415.5 342.833,415.5 341.5,415.5C 333.361,414.169 324.861,413.502 316,413.5C 307.5,413.833 299,414.167 290.5,414.5C 289.007,416.364 288.34,418.53 288.5,421C 288.995,425.311 289.995,429.478 291.5,433.5C 289.833,433.5 288.167,433.5 286.5,433.5C 287.211,430.136 286.044,427.803 283,426.5C 282.952,423.671 281.952,421.337 280,419.5C 279.308,420.025 278.808,420.692 278.5,421.5C 281.115,425.03 282.115,429.03 281.5,433.5C 276.259,432.69 271.093,432.69 266,433.5C 265.517,432.552 265.351,431.552 265.5,430.5C 242.498,430.333 219.498,430.5 196.5,431C 195.975,431.692 195.308,432.192 194.5,432.5C 190.23,431.91 185.897,431.91 181.5,432.5C 181.5,433.5 181.5,434.5 181.5,435.5C 228.171,435.833 274.838,435.5 321.5,434.5C 323.078,433.702 324.744,433.202 326.5,433C 315.969,430.923 305.303,429.923 294.5,430C 305.828,429.5 317.162,429.333 328.5,429.5C 329.473,431.948 329.806,434.615 329.5,437.5C 275.167,437.5 220.833,437.5 166.5,437.5C 166.5,437.167 166.5,436.833 166.5,436.5C 167.119,432.338 167.785,428.172 168.5,424C 168.156,422.635 167.489,421.468 166.5,420.5C 167.734,418.602 167.401,416.935 165.5,415.5C 162.387,418.192 158.721,419.192 154.5,418.5C 154.5,419.5 154.5,420.5 154.5,421.5C 153.512,426.64 153.179,431.974 153.5,437.5C 141.5,437.5 129.5,437.5 117.5,437.5C 116.173,397.827 116.173,358.16 117.5,318.5C 123.842,318.666 130.175,318.5 136.5,318C 137.252,317.329 137.586,316.496 137.5,315.5C 138.317,313.031 138.817,310.365 139,307.5C 140.813,327.414 141.646,327.414 141.5,307.5C 143.144,307.286 144.644,307.62 146,308.5C 146.226,312.887 146.726,317.221 147.5,321.5C 149.006,322.747 150.506,322.747 152,321.5C 152.498,324.817 152.665,328.15 152.5,331.5C 145.313,331.175 138.313,331.509 131.5,332.5C 130.5,333.167 129.5,333.833 128.5,334.5C 126.139,334.674 123.806,335.007 121.5,335.5C 121.5,331.167 121.5,326.833 121.5,322.5C 120.5,322.5 119.5,322.5 118.5,322.5C 119.585,338.468 120.252,354.468 120.5,370.5C 120.567,391.652 119.9,412.652 118.5,433.5C 119.5,433.5 120.5,433.5 121.5,433.5C 121.5,424.5 121.5,415.5 121.5,406.5C 123.124,406.64 124.29,405.973 125,404.5C 125.011,382.352 125.677,360.352 127,338.5C 127.5,361.498 127.667,384.498 127.5,407.5C 127.077,409.781 127.744,411.448 129.5,412.5C 132.684,414.414 136.351,415.08 140.5,414.5C 141.5,414.5 142.5,414.5 143.5,414.5C 144.056,398.824 144.889,383.158 146,367.5C 148.059,362.032 148.892,356.365 148.5,350.5C 147.5,350.5 146.5,350.5 145.5,350.5C 145.666,354.846 145.499,359.179 145,363.5C 143.886,361.03 143.386,358.364 143.5,355.5C 143.527,352.911 143.861,350.411 144.5,348C 151.536,347.28 158.536,347.447 165.5,348.5C 165.433,347.041 165.766,345.708 166.5,344.5C 166.5,305.167 166.5,265.833 166.5,226.5C 171.43,226.197 176.263,226.531 181,227.5C 181.167,271.669 181.667,315.669 182.5,359.5 Z"/></g>
<g><path style="opacity:0.725" fill="#d46f6d" d="M 193.5,224.5 C 193.833,224.5 194.167,224.5 194.5,224.5C 194.5,234.5 194.5,244.5 194.5,254.5C 194.167,254.5 193.833,254.5 193.5,254.5C 192.167,244.5 192.167,234.5 193.5,224.5 Z"/></g>
<g><path style="opacity:1" fill="#ce2d34" d="M 341.5,214.5 C 341.5,214.167 341.5,213.833 341.5,213.5C 342.5,213.5 343.5,213.5 344.5,213.5C 344.666,222.506 344.5,231.506 344,240.5C 340.75,243.353 336.917,244.186 332.5,243C 331.748,242.329 331.414,241.496 331.5,240.5C 331.833,240.5 332.167,240.5 332.5,240.5C 335.565,241.818 338.731,241.818 342,240.5C 342.824,231.657 342.657,222.99 341.5,214.5 Z"/></g>
<g><path style="opacity:0.345" fill="#d17f83" d="M 216.5,239.5 C 216.833,239.5 217.167,239.5 217.5,239.5C 217.5,239.833 217.5,240.167 217.5,240.5C 217.5,245.5 217.5,250.5 217.5,255.5C 213.465,255.393 209.465,255.726 205.5,256.5C 201.322,256.044 197.322,255.377 193.5,254.5C 193.833,254.5 194.167,254.5 194.5,254.5C 201.833,254.5 209.167,254.5 216.5,254.5C 216.5,249.5 216.5,244.5 216.5,239.5 Z"/></g>
<g><path style="opacity:0.18" fill="#ed9598" d="M 217.5,240.5 C 217.5,240.167 217.5,239.833 217.5,239.5C 220.167,239.5 222.833,239.5 225.5,239.5C 226.492,239.328 227.158,239.662 227.5,240.5C 227.826,248.684 227.492,256.684 226.5,264.5C 226.5,256.5 226.5,248.5 226.5,240.5C 223.5,240.5 220.5,240.5 217.5,240.5 Z"/></g>
<g><path style="opacity:0.764" fill="#b92932" d="M 227.5,240.5 C 228.166,244.486 228.499,248.653 228.5,253C 228.491,257.557 227.825,261.724 226.5,265.5C 226.5,265.167 226.5,264.833 226.5,264.5C 227.492,256.684 227.826,248.684 227.5,240.5 Z"/></g>
<g><path style="opacity:1" fill="#ec1e26" d="M 344.5,284.5 C 344.666,276.826 344.5,269.159 344,261.5C 343.167,260.667 342.333,259.833 341.5,259C 336.977,258.68 332.477,258.18 328,257.5C 325.449,257.492 323.616,258.492 322.5,260.5C 322.5,260.833 322.5,261.167 322.5,261.5C 322.5,264.5 322.5,267.5 322.5,270.5C 322.5,271.167 322.833,271.5 323.5,271.5C 323.5,272.167 323.833,272.5 324.5,272.5C 325.919,273.451 327.585,273.784 329.5,273.5C 329.5,311.167 329.5,348.833 329.5,386.5C 327.585,386.216 325.919,386.549 324.5,387.5C 320.167,387.5 315.833,387.5 311.5,387.5C 311.667,355.165 311.5,322.832 311,290.5C 307.731,289.182 304.565,289.182 301.5,290.5C 300.178,290.33 299.011,290.663 298,291.5C 297.5,323.498 297.333,355.498 297.5,387.5C 295.901,387.232 294.568,387.566 293.5,388.5C 282.802,388.737 272.135,388.404 261.5,387.5C 261.334,382.489 261.501,377.489 262,372.5C 262.383,371.944 262.883,371.611 263.5,371.5C 269.842,371.666 276.175,371.5 282.5,371C 285.901,366.483 286.235,361.816 283.5,357C 272.152,356.168 260.819,356.334 249.5,357.5C 248.525,367.447 248.192,377.447 248.5,387.5C 221.498,387.667 194.498,387.5 167.5,387C 166.556,384.281 166.223,381.448 166.5,378.5C 190.101,379.822 213.768,379.822 237.5,378.5C 239.412,371.713 240.078,364.713 239.5,357.5C 242.121,357.477 243.455,358.811 243.5,361.5C 241.668,366.597 241.001,371.931 241.5,377.5C 242.5,377.5 243.5,377.5 244.5,377.5C 245.003,360.179 245.837,360.179 247,377.5C 247.301,369.475 247.801,361.475 248.5,353.5C 245.978,353.872 243.978,353.039 242.5,351C 250.013,349.104 257.68,348.104 265.5,348C 255.5,347.667 245.5,347.333 235.5,347C 233.292,346.809 231.292,346.309 229.5,345.5C 242.171,345.667 254.838,345.5 267.5,345C 268.416,344.626 269.25,344.126 270,343.5C 270.495,340.469 270.329,337.469 269.5,334.5C 269.666,327.492 269.5,320.492 269,313.5C 266.02,312.809 263.186,311.809 260.5,310.5C 258.39,308.672 257.556,306.339 258,303.5C 260.768,301.204 263.601,299.204 266.5,297.5C 266.5,296.167 266.5,294.833 266.5,293.5C 267.8,291.777 268.467,289.61 268.5,287C 269.434,281.329 269.434,275.829 268.5,270.5C 268.167,269.5 267.5,268.833 266.5,268.5C 254.867,266.671 242.867,265.671 230.5,265.5C 229.302,257.654 229.302,249.821 230.5,242C 229.144,240.433 228.477,238.6 228.5,236.5C 221.825,236.334 215.158,236.5 208.5,237C 209.047,237.925 209.713,238.758 210.5,239.5C 211.524,238.147 212.857,237.48 214.5,237.5C 214.5,242.5 214.5,247.5 214.5,252.5C 208.529,251.759 202.529,251.425 196.5,251.5C 196.5,243.5 196.5,235.5 196.5,227.5C 230.86,227.661 265.193,227.661 299.5,227.5C 299.5,229.833 299.5,232.167 299.5,234.5C 292.646,234.176 285.979,234.509 279.5,235.5C 279.5,235.833 279.5,236.167 279.5,236.5C 279.167,236.5 278.833,236.5 278.5,236.5C 277.5,236.5 276.5,236.5 275.5,236.5C 274.86,246.558 275.527,256.225 277.5,265.5C 277.833,265.5 278.167,265.5 278.5,265.5C 281.5,265.5 284.5,265.5 287.5,265.5C 287.833,265.5 288.167,265.5 288.5,265.5C 289.489,260.025 289.822,254.358 289.5,248.5C 292.85,248.335 296.183,248.502 299.5,249C 299.957,253.08 300.957,256.914 302.5,260.5C 303.514,261.765 305.014,262.431 307,262.5C 310.575,263.23 312.742,261.897 313.5,258.5C 314.693,258.03 315.36,257.03 315.5,255.5C 314.578,245.86 314.245,236.193 314.5,226.5C 319.833,226.5 325.167,226.5 330.5,226.5C 330.181,231.363 330.514,236.03 331.5,240.5C 331.414,241.496 331.748,242.329 332.5,243C 336.917,244.186 340.75,243.353 344,240.5C 344.5,231.506 344.666,222.506 344.5,213.5C 343.5,213.5 342.5,213.5 341.5,213.5C 341.5,213.167 341.5,212.833 341.5,212.5C 339.735,211.539 337.735,211.205 335.5,211.5C 335.5,210.5 335.5,209.5 335.5,208.5C 326.167,208.5 316.833,208.5 307.5,208.5C 307.5,207.5 307.5,206.5 307.5,205.5C 321.5,205.5 335.5,205.5 349.5,205.5C 349.312,207.103 349.812,208.437 351,209.5C 351.333,232.833 351.667,256.167 352,279.5C 353.269,280.905 353.769,282.571 353.5,284.5C 350.5,284.5 347.5,284.5 344.5,284.5 Z"/></g>
<g><path style="opacity:0.878" fill="#d12e36" d="M 344.5,284.5 C 343.833,277.167 343.167,269.833 342.5,262.5C 342.389,261.883 342.056,261.383 341.5,261C 335.175,260.5 328.842,260.334 322.5,260.5C 323.616,258.492 325.449,257.492 328,257.5C 332.477,258.18 336.977,258.68 341.5,259C 342.333,259.833 343.167,260.667 344,261.5C 344.5,269.159 344.666,276.826 344.5,284.5 Z"/></g>
<g><path style="opacity:0.439" fill="#d48182" d="M 302.5,247.5 C 297.833,247.5 293.167,247.5 288.5,247.5C 288.5,253.5 288.5,259.5 288.5,265.5C 288.167,265.5 287.833,265.5 287.5,265.5C 287.5,261.5 287.5,257.5 287.5,253.5C 286.232,251.33 286.232,249.163 287.5,247C 290.861,246.663 294.194,246.163 297.5,245.5C 299.422,245.801 301.088,246.467 302.5,247.5 Z"/></g>
<g><path style="opacity:1" fill="#d62635" d="M 278.5,236.5 C 277.527,246.084 277.194,255.75 277.5,265.5C 275.527,256.225 274.86,246.558 275.5,236.5C 276.5,236.5 277.5,236.5 278.5,236.5 Z"/></g>
<g><path style="opacity:0.906" fill="#be3237" d="M 302.5,247.5 C 302.5,251.833 302.5,256.167 302.5,260.5C 300.957,256.914 299.957,253.08 299.5,249C 296.183,248.502 292.85,248.335 289.5,248.5C 289.822,254.358 289.489,260.025 288.5,265.5C 288.5,259.5 288.5,253.5 288.5,247.5C 293.167,247.5 297.833,247.5 302.5,247.5 Z"/></g>
<g><path style="opacity:0.584" fill="#b73c44" d="M 225.5,239.5 C 222.833,239.5 220.167,239.5 217.5,239.5C 217.167,239.5 216.833,239.5 216.5,239.5C 217.514,238.235 219.014,237.569 221,237.5C 222.986,237.569 224.486,238.235 225.5,239.5 Z"/></g>
<g><path style="opacity:0.518" fill="#de9594" d="M 226.5,264.5 C 226.5,264.833 226.5,265.167 226.5,265.5C 216.167,265.5 205.833,265.5 195.5,265.5C 193.508,293.147 192.842,321.147 193.5,349.5C 192.502,321.338 192.169,293.005 192.5,264.5C 203.828,263.227 215.161,263.227 226.5,264.5 Z"/></g>
<g><path style="opacity:0.039" fill="#ffe4e2" d="M 287.5,253.5 C 287.5,257.5 287.5,261.5 287.5,265.5C 284.5,265.5 281.5,265.5 278.5,265.5C 278.5,265.167 278.5,264.833 278.5,264.5C 281.167,264.5 283.833,264.5 286.5,264.5C 286.185,260.629 286.518,256.962 287.5,253.5 Z"/></g>
<g><path style="opacity:0.199" fill="#e18a8c" d="M 229.5,268.5 C 241.833,268.5 254.167,268.5 266.5,268.5C 267.5,268.833 268.167,269.5 268.5,270.5C 266.866,277.975 266.199,285.641 266.5,293.5C 266.167,293.5 265.833,293.5 265.5,293.5C 265.5,289.167 265.5,284.833 265.5,280.5C 266.151,278.174 266.818,275.841 267.5,273.5C 267.43,272.228 267.097,271.062 266.5,270C 254.5,269.333 242.5,269.333 230.5,270C 229.577,272.041 229.244,274.208 229.5,276.5C 228.233,273.939 228.233,271.272 229.5,268.5 Z"/></g>
<g><path style="opacity:0.086" fill="#f6c5c6" d="M 322.5,261.5 C 322.833,261.5 323.167,261.5 323.5,261.5C 323.5,264.167 323.5,266.833 323.5,269.5C 326.713,269.19 329.713,269.523 332.5,270.5C 329.167,270.5 325.833,270.5 322.5,270.5C 322.5,267.5 322.5,264.5 322.5,261.5 Z"/></g>
<g><path style="opacity:1" fill="#d22531" d="M 195.5,266.5 C 195.5,293.833 195.5,321.167 195.5,348.5C 205.015,348.173 214.348,348.506 223.5,349.5C 213.833,349.5 204.167,349.5 194.5,349.5C 194.169,321.662 194.502,293.995 195.5,266.5 Z"/></g>
<g><path style="opacity:0.158" fill="#df9796" d="M 322.5,261.5 C 322.5,261.167 322.5,260.833 322.5,260.5C 328.842,260.334 335.175,260.5 341.5,261C 342.056,261.383 342.389,261.883 342.5,262.5C 342.5,270.833 342.5,279.167 342.5,287.5C 341.671,279.343 341.171,271.01 341,262.5C 335.259,261.525 329.425,261.192 323.5,261.5C 323.167,261.5 322.833,261.5 322.5,261.5 Z"/></g>
<g><path style="opacity:1" fill="#cb2d37" d="M 183.5,224.5 C 183.5,269.5 183.5,314.5 183.5,359.5C 183.167,359.5 182.833,359.5 182.5,359.5C 181.667,315.669 181.167,271.669 181,227.5C 176.263,226.531 171.43,226.197 166.5,226.5C 166.5,265.833 166.5,305.167 166.5,344.5C 166.167,344.5 165.833,344.5 165.5,344.5C 165.5,304.5 165.5,264.5 165.5,224.5C 171.5,224.5 177.5,224.5 183.5,224.5 Z"/></g>
<g><path style="opacity:0.761" fill="#c4484f" d="M 195.5,265.5 C 195.5,265.833 195.5,266.167 195.5,266.5C 194.502,293.995 194.169,321.662 194.5,349.5C 204.167,349.5 213.833,349.5 223.5,349.5C 223.5,349.833 223.5,350.167 223.5,350.5C 213.833,350.5 204.167,350.5 194.5,350.5C 193.833,350.5 193.5,350.167 193.5,349.5C 192.842,321.147 193.508,293.147 195.5,265.5 Z"/></g>
<g><path style="opacity:0.609" fill="#b45555" d="M 229.5,276.5 C 230.906,276.973 231.573,277.973 231.5,279.5C 231.5,284.167 231.5,288.833 231.5,293.5C 230.747,287.968 230.08,282.301 229.5,276.5 Z"/></g>
<g><path style="opacity:0.02" fill="#fddbe1" d="M 265.5,280.5 C 265.5,284.833 265.5,289.167 265.5,293.5C 265.573,295.027 264.906,296.027 263.5,296.5C 264.075,291.031 264.741,285.698 265.5,280.5 Z"/></g>
<g><path style="opacity:0.747" fill="#c55354" d="M 114.5,279.5 C 122.833,279.5 131.167,279.5 139.5,279.5C 132.018,280.492 124.352,280.825 116.5,280.5C 115.508,288.316 115.174,296.316 115.5,304.5C 122.022,304.177 128.355,304.51 134.5,305.5C 127.833,305.5 121.167,305.5 114.5,305.5C 113.167,296.833 113.167,288.167 114.5,279.5 Z"/></g>
<g><path style="opacity:0.987" fill="#c92f33" d="M 229.5,268.5 C 228.233,271.272 228.233,273.939 229.5,276.5C 230.08,282.301 230.747,287.968 231.5,293.5C 232.167,296.167 233.833,297.833 236.5,298.5C 236.973,299.906 237.973,300.573 239.5,300.5C 239.5,301.167 239.5,301.833 239.5,302.5C 235.968,301.146 232.802,299.146 230,296.5C 229.667,291.167 229.333,285.833 229,280.5C 228.392,278.934 227.558,277.6 226.5,276.5C 226.023,273.083 227.023,270.416 229.5,268.5 Z"/></g>
<g><path style="opacity:1" fill="#d12a2e" d="M 268.5,270.5 C 269.434,275.829 269.434,281.329 268.5,287C 268.467,289.61 267.8,291.777 266.5,293.5C 266.199,285.641 266.866,277.975 268.5,270.5 Z"/></g>
<g><path style="opacity:0.996" fill="#cd2839" d="M 301.5,290.5 C 304.385,290.194 307.052,290.527 309.5,291.5C 307.833,291.5 306.167,291.5 304.5,291.5C 303.833,291.5 303.167,291.5 302.5,291.5C 301.209,291.263 300.209,291.596 299.5,292.5C 298.502,324.329 298.168,356.329 298.5,388.5C 296.833,388.5 295.167,388.5 293.5,388.5C 294.568,387.566 295.901,387.232 297.5,387.5C 297.333,355.498 297.5,323.498 298,291.5C 299.011,290.663 300.178,290.33 301.5,290.5 Z"/></g>
<g><path style="opacity:0.345" fill="#f1b0ae" d="M 231.5,279.5 C 232.326,284.316 232.826,289.316 233,294.5C 234.376,295.705 235.542,297.038 236.5,298.5C 233.833,297.833 232.167,296.167 231.5,293.5C 231.5,288.833 231.5,284.167 231.5,279.5 Z"/></g>
<g><path style="opacity:0.008" fill="#fcc6bc" d="M 236.5,298.5 C 238.027,298.427 239.027,299.094 239.5,300.5C 237.973,300.573 236.973,299.906 236.5,298.5 Z"/></g>
<g><path style="opacity:0.294" fill="#d9928d" d="M 262.5,297.5 C 261.738,299.262 260.404,300.262 258.5,300.5C 259.262,298.738 260.596,297.738 262.5,297.5 Z"/></g>
<g><path style="opacity:0.173" fill="#f7aeaf" d="M 304.5,291.5 C 306.167,291.5 307.833,291.5 309.5,291.5C 309.5,324.167 309.5,356.833 309.5,389.5C 308.502,357.338 308.168,325.004 308.5,292.5C 306.901,292.768 305.568,292.434 304.5,291.5 Z"/></g>
<g><path style="opacity:1" fill="#d82432" d="M 301.5,290.5 C 304.565,289.182 307.731,289.182 311,290.5C 311.5,322.832 311.667,355.165 311.5,387.5C 315.833,387.5 320.167,387.5 324.5,387.5C 326.5,387.5 328.5,387.5 330.5,387.5C 330.5,387.833 330.5,388.167 330.5,388.5C 323.833,388.5 317.167,388.5 310.5,388.5C 310.832,355.996 310.498,323.662 309.5,291.5C 307.052,290.527 304.385,290.194 301.5,290.5 Z"/></g>
<g><path style="opacity:0.592" fill="#db8689" d="M 258.5,300.5 C 256.568,303.177 256.068,306.177 257,309.5C 258.707,311.037 260.207,312.704 261.5,314.5C 256.148,312.661 253.982,308.994 255,303.5C 255.422,301.574 256.589,300.574 258.5,300.5 Z"/></g>
<g><path style="opacity:0.041" fill="#efaeb0" d="M 114.5,305.5 C 121.167,305.5 127.833,305.5 134.5,305.5C 135.477,308.287 135.81,311.287 135.5,314.5C 135.167,314.5 134.833,314.5 134.5,314.5C 134.5,311.833 134.5,309.167 134.5,306.5C 127.646,306.824 120.979,306.491 114.5,305.5 Z"/></g>
<g><path style="opacity:0.239" fill="#e4a1a4" d="M 239.5,300.5 C 240.458,300.953 241.292,301.619 242,302.5C 242.796,305.039 242.629,307.372 241.5,309.5C 241.662,307.473 241.495,305.473 241,303.5C 240.617,302.944 240.117,302.611 239.5,302.5C 239.5,301.833 239.5,301.167 239.5,300.5 Z"/></g>
<g><path style="opacity:0.953" fill="#bf2f35" d="M 265.5,293.5 C 265.833,293.5 266.167,293.5 266.5,293.5C 266.5,294.833 266.5,296.167 266.5,297.5C 263.601,299.204 260.768,301.204 258,303.5C 257.556,306.339 258.39,308.672 260.5,310.5C 261.5,311.833 262.5,313.167 263.5,314.5C 262.833,314.5 262.167,314.5 261.5,314.5C 260.207,312.704 258.707,311.037 257,309.5C 256.068,306.177 256.568,303.177 258.5,300.5C 260.404,300.262 261.738,299.262 262.5,297.5C 262.5,296.833 262.833,296.5 263.5,296.5C 264.906,296.027 265.573,295.027 265.5,293.5 Z"/></g>
<g><path style="opacity:0.107" fill="#f1bcc0" d="M 302.5,291.5 C 300.848,324.115 299.848,356.781 299.5,389.5C 299.5,357.167 299.5,324.833 299.5,292.5C 300.209,291.596 301.209,291.263 302.5,291.5 Z"/></g>
<g><path style="opacity:0.793" fill="#bc333f" d="M 309.5,291.5 C 310.498,323.662 310.832,355.996 310.5,388.5C 317.167,388.5 323.833,388.5 330.5,388.5C 330.833,388.5 331.167,388.5 331.5,388.5C 324.352,389.492 317.019,389.825 309.5,389.5C 309.5,356.833 309.5,324.167 309.5,291.5 Z"/></g>
<g><path style="opacity:1" fill="#ef1c27" d="M 380.5,352.5 C 380.5,353.833 380.5,355.167 380.5,356.5C 374.833,356.5 369.167,356.5 363.5,356.5C 360.696,355.362 357.696,355.195 354.5,356C 353.726,358.405 353.226,360.905 353,363.5C 352.138,361.913 351.471,360.246 351,358.5C 350.667,358.833 350.333,359.167 350,359.5C 350.484,370.173 350.317,380.839 349.5,391.5C 348.333,363.839 348.167,336.173 349,308.5C 349.667,307.167 350.333,307.167 351,308.5C 351.41,320.337 352.077,332.003 353,343.5C 357.271,345.496 361.771,345.996 366.5,345C 367.056,344.617 367.389,344.117 367.5,343.5C 367.5,342.833 367.833,342.5 368.5,342.5C 369.473,340.052 369.806,337.385 369.5,334.5C 370.5,334.5 371.5,334.5 372.5,334.5C 372.5,288.5 372.5,242.5 372.5,196.5C 373.5,196.5 374.5,196.5 375.5,196.5C 375.833,242.838 375.5,289.171 374.5,335.5C 373.119,336 372.453,337 372.5,338.5C 373.108,341.145 373.608,343.812 374,346.5C 375,347.833 376,347.833 377,346.5C 378.459,348.432 379.625,350.432 380.5,352.5 Z"/></g>
<g><path style="opacity:0.113" fill="#ecb0b3" d="M 356.5,297.5 C 357.331,311.661 357.831,325.994 358,340.5C 360.041,341.423 362.208,341.756 364.5,341.5C 365.167,341.5 365.833,341.5 366.5,341.5C 363.375,342.479 360.042,342.813 356.5,342.5C 356.5,341.833 356.5,341.167 356.5,340.5C 356.5,326.167 356.5,311.833 356.5,297.5 Z"/></g>
<g><path style="opacity:0.712" fill="#c95b64" d="M 299.5,292.5 C 299.5,324.833 299.5,357.167 299.5,389.5C 286.5,390.833 273.5,390.833 260.5,389.5C 271.679,389.828 282.679,389.495 293.5,388.5C 295.167,388.5 296.833,388.5 298.5,388.5C 298.168,356.329 298.502,324.329 299.5,292.5 Z"/></g>
<g><path style="opacity:1" fill="#da242c" d="M 354.5,299.5 C 351.482,299.704 348.482,300.037 345.5,300.5C 344.531,330.808 344.198,361.142 344.5,391.5C 344.167,391.5 343.833,391.5 343.5,391.5C 343.333,361.165 343.5,330.832 344,300.5C 345.648,298.972 347.648,298.305 350,298.5C 351.707,298.508 353.207,298.842 354.5,299.5 Z"/></g>
<g><path style="opacity:0.906" fill="#d45e5e" d="M 239.5,302.5 C 240.117,302.611 240.617,302.944 241,303.5C 241.495,305.473 241.662,307.473 241.5,309.5C 239.807,312.19 237.473,314.19 234.5,315.5C 234.167,315.5 233.833,315.5 233.5,315.5C 233.5,314.833 233.5,314.167 233.5,313.5C 234.568,312.566 235.901,312.232 237.5,312.5C 237.624,310.048 238.624,308.048 240.5,306.5C 240.154,305.151 239.821,303.817 239.5,302.5 Z"/></g>
<g><path style="opacity:1" fill="#e0242e" d="M 260.5,310.5 C 263.186,311.809 266.02,312.809 269,313.5C 269.5,320.492 269.666,327.492 269.5,334.5C 268.778,334.082 268.278,333.416 268,332.5C 267.823,328.644 267.323,324.977 266.5,321.5C 266.85,318.547 265.85,316.213 263.5,314.5C 262.5,313.167 261.5,311.833 260.5,310.5 Z"/></g>
<g><path style="opacity:1" fill="#d7252f" d="M 116.5,280.5 C 116.5,288.167 116.5,295.833 116.5,303.5C 122.513,303.131 128.513,302.964 134.5,303C 135.333,303.833 136.167,304.667 137,305.5C 137.498,308.817 137.665,312.15 137.5,315.5C 137.586,316.496 137.252,317.329 136.5,318C 130.175,318.5 123.842,318.666 117.5,318.5C 116.173,358.16 116.173,397.827 117.5,437.5C 129.5,437.5 141.5,437.5 153.5,437.5C 141.011,438.495 128.344,438.829 115.5,438.5C 115.333,398.499 115.5,358.499 116,318.5C 116.5,318 117,317.5 117.5,317C 123.916,317.129 129.916,316.295 135.5,314.5C 135.81,311.287 135.477,308.287 134.5,305.5C 128.355,304.51 122.022,304.177 115.5,304.5C 115.174,296.316 115.508,288.316 116.5,280.5 Z"/></g>
<g><path style="opacity:0.987" fill="#c02729" d="M 323.5,271.5 C 326.167,271.5 328.833,271.5 331.5,271.5C 331.5,310.5 331.5,349.5 331.5,388.5C 331.167,388.5 330.833,388.5 330.5,388.5C 330.5,388.167 330.5,387.833 330.5,387.5C 330.5,349.167 330.5,310.833 330.5,272.5C 328.5,272.5 326.5,272.5 324.5,272.5C 323.833,272.5 323.5,272.167 323.5,271.5 Z"/></g>
<g><path style="opacity:1" fill="#dd262f" d="M 233.5,313.5 C 233.5,314.167 233.5,314.833 233.5,315.5C 232.833,315.5 232.5,315.833 232.5,316.5C 230.705,322.084 229.871,328.084 230,334.5C 229.617,335.056 229.117,335.389 228.5,335.5C 227.833,335.5 227.167,335.5 226.5,335.5C 229.161,328.123 229.161,320.79 226.5,313.5C 226.833,312.833 227.167,312.167 227.5,311.5C 229.173,313.086 231.173,313.753 233.5,313.5 Z"/></g>
<g><path style="opacity:1" fill="#e02628" d="M 324.5,272.5 C 326.5,272.5 328.5,272.5 330.5,272.5C 330.5,310.833 330.5,349.167 330.5,387.5C 328.5,387.5 326.5,387.5 324.5,387.5C 325.919,386.549 327.585,386.216 329.5,386.5C 329.5,348.833 329.5,311.167 329.5,273.5C 327.585,273.784 325.919,273.451 324.5,272.5 Z"/></g>
<g><path style="opacity:0.584" fill="#db7e7e" d="M 322.5,270.5 C 325.833,270.5 329.167,270.5 332.5,270.5C 333.665,309.665 333.831,348.998 333,388.5C 329.26,389.794 325.26,390.461 321,390.5C 316.985,390.499 313.151,390.165 309.5,389.5C 317.019,389.825 324.352,389.492 331.5,388.5C 331.5,349.5 331.5,310.5 331.5,271.5C 328.833,271.5 326.167,271.5 323.5,271.5C 322.833,271.5 322.5,271.167 322.5,270.5 Z"/></g>
<g><path style="opacity:1" fill="#ea1f29" d="M 128.5,334.5 C 128.831,359.006 128.498,383.339 127.5,407.5C 127.667,384.498 127.5,361.498 127,338.5C 125.677,360.352 125.011,382.352 125,404.5C 124.29,405.973 123.124,406.64 121.5,406.5C 121.5,415.5 121.5,424.5 121.5,433.5C 120.5,433.5 119.5,433.5 118.5,433.5C 119.9,412.652 120.567,391.652 120.5,370.5C 120.252,354.468 119.585,338.468 118.5,322.5C 119.5,322.5 120.5,322.5 121.5,322.5C 121.5,326.833 121.5,331.167 121.5,335.5C 123.806,335.007 126.139,334.674 128.5,334.5 Z"/></g>
<g><path style="opacity:0.542" fill="#db8188" d="M 261.5,314.5 C 262.167,314.5 262.833,314.5 263.5,314.5C 265.85,316.213 266.85,318.547 266.5,321.5C 266.5,325.833 266.5,330.167 266.5,334.5C 264.882,329.097 264.049,323.43 264,317.5C 262.955,316.627 262.122,315.627 261.5,314.5 Z"/></g>
<g><path style="opacity:0.063" fill="#f8d4d5" d="M 233.5,315.5 C 233.833,315.5 234.167,315.5 234.5,315.5C 234.013,316.473 233.513,317.473 233,318.5C 232.827,324.016 232.327,329.349 231.5,334.5C 231.211,328.409 231.545,322.409 232.5,316.5C 232.5,315.833 232.833,315.5 233.5,315.5 Z"/></g>
<g><path style="opacity:0.771" fill="#c65c5b" d="M 134.5,314.5 C 134.833,314.5 135.167,314.5 135.5,314.5C 129.916,316.295 123.916,317.129 117.5,317C 117,317.5 116.5,318 116,318.5C 115.5,358.499 115.333,398.499 115.5,438.5C 128.344,438.829 141.011,438.495 153.5,437.5C 153.179,431.974 153.512,426.64 154.5,421.5C 154.5,426.833 154.5,432.167 154.5,437.5C 141.542,439.481 128.209,440.148 114.5,439.5C 113.335,398.335 113.169,357.002 114,315.5C 120.744,314.521 127.578,314.188 134.5,314.5 Z"/></g>
<g><path style="opacity:0.139" fill="#f5aeb2" d="M 266.5,334.5 C 268.026,335.492 268.693,336.992 268.5,339C 268.486,340.385 268.152,341.551 267.5,342.5C 267.599,339.763 267.265,337.096 266.5,334.5 Z"/></g>
<g><path style="opacity:0.051" fill="#fed9da" d="M 164.5,337.5 C 164.5,339.833 164.5,342.167 164.5,344.5C 156.5,344.5 148.5,344.5 140.5,344.5C 147.982,343.508 155.648,343.175 163.5,343.5C 163.205,341.265 163.539,339.265 164.5,337.5 Z"/></g>
<g><path style="opacity:0.56" fill="#d28386" d="M 232.5,316.5 C 231.545,322.409 231.211,328.409 231.5,334.5C 229.774,336.82 229.107,339.487 229.5,342.5C 242.167,342.5 254.833,342.5 267.5,342.5C 267.389,343.117 267.056,343.617 266.5,344C 254.167,344.667 241.833,344.667 229.5,344C 228.556,341.281 228.223,338.448 228.5,335.5C 229.117,335.389 229.617,335.056 230,334.5C 229.871,328.084 230.705,322.084 232.5,316.5 Z"/></g>
<g><path style="opacity:0.049" fill="#ffdbd8" d="M 130.5,344.5 C 131.497,366.66 131.831,388.994 131.5,411.5C 133.415,411.216 135.081,411.549 136.5,412.5C 134.5,412.5 132.5,412.5 130.5,412.5C 130.5,389.833 130.5,367.167 130.5,344.5 Z"/></g>
<g><path style="opacity:0.982" fill="#ca303c" d="M 266.5,321.5 C 267.323,324.977 267.823,328.644 268,332.5C 268.278,333.416 268.778,334.082 269.5,334.5C 270.329,337.469 270.495,340.469 270,343.5C 269.25,344.126 268.416,344.626 267.5,345C 254.838,345.5 242.171,345.667 229.5,345.5C 228.542,345.047 227.708,344.381 227,343.5C 226.503,340.854 226.336,338.187 226.5,335.5C 227.167,335.5 227.833,335.5 228.5,335.5C 228.223,338.448 228.556,341.281 229.5,344C 241.833,344.667 254.167,344.667 266.5,344C 267.056,343.617 267.389,343.117 267.5,342.5C 268.152,341.551 268.486,340.385 268.5,339C 268.693,336.992 268.026,335.492 266.5,334.5C 266.5,330.167 266.5,325.833 266.5,321.5 Z"/></g>
<g><path style="opacity:0.962" fill="#ce212f" d="M 131.5,332.5 C 138.833,332.5 146.167,332.5 153.5,332.5C 146.5,333.167 139.5,333.833 132.5,334.5C 131.5,334.5 130.5,334.5 129.5,334.5C 129.5,360.5 129.5,386.5 129.5,412.5C 127.744,411.448 127.077,409.781 127.5,407.5C 128.498,383.339 128.831,359.006 128.5,334.5C 129.5,333.833 130.5,333.167 131.5,332.5 Z"/></g>
<g><path style="opacity:0.238" fill="#f3afaf" d="M 183.5,224.5 C 184.499,269.33 184.832,314.33 184.5,359.5C 197.167,359.5 209.833,359.5 222.5,359.5C 222.5,356.833 222.5,354.167 222.5,351.5C 212.985,351.827 203.652,351.494 194.5,350.5C 204.167,350.5 213.833,350.5 223.5,350.5C 223.5,353.833 223.5,357.167 223.5,360.5C 209.99,360.829 196.656,360.496 183.5,359.5C 183.5,314.5 183.5,269.5 183.5,224.5 Z"/></g>
<g><path style="opacity:1" fill="#d12931" d="M 223.5,349.5 C 224.496,349.414 225.329,349.748 226,350.5C 226.76,354.225 226.593,357.892 225.5,361.5C 224.667,361.833 223.833,362.167 223,362.5C 210.681,362.312 198.347,362.645 186,363.5C 183.926,362.928 182.76,361.595 182.5,359.5C 182.833,359.5 183.167,359.5 183.5,359.5C 196.656,360.496 209.99,360.829 223.5,360.5C 223.5,357.167 223.5,353.833 223.5,350.5C 223.5,350.167 223.5,349.833 223.5,349.5 Z"/></g>
<g><path style="opacity:0.921" fill="#ca2e35" d="M 164.5,345.5 C 157.099,346.182 149.599,346.848 142,347.5C 141.326,365.674 141.493,383.84 142.5,402C 142.333,405.5 142.167,409 142,412.5C 141.283,413.044 140.783,413.711 140.5,414.5C 136.351,415.08 132.684,414.414 129.5,412.5C 129.833,412.5 130.167,412.5 130.5,412.5C 133.565,413.818 136.731,413.818 140,412.5C 140.5,390.169 140.667,367.836 140.5,345.5C 148.5,345.5 156.5,345.5 164.5,345.5 Z"/></g>
<g><path style="opacity:0.059" fill="#f7c9cb" d="M 250.5,359.5 C 251.167,359.5 251.833,359.5 252.5,359.5C 251.856,369.599 251.189,379.599 250.5,389.5C 250.5,379.5 250.5,369.5 250.5,359.5 Z"/></g>
<g><path style="opacity:0.857" fill="#c04044" d="M 356.5,297.5 C 356.5,311.833 356.5,326.167 356.5,340.5C 355.833,326.833 355.167,313.167 354.5,299.5C 353.207,298.842 351.707,298.508 350,298.5C 347.648,298.305 345.648,298.972 344,300.5C 343.5,330.832 343.333,361.165 343.5,391.5C 343.795,393.735 343.461,395.735 342.5,397.5C 342.5,364.167 342.5,330.833 342.5,297.5C 347.167,296.167 351.833,296.167 356.5,297.5 Z"/></g>
<g><path style="opacity:0.256" fill="#d5878b" d="M 383.5,439.5 C 383.167,439.5 382.833,439.5 382.5,439.5C 382.5,416.167 382.5,392.833 382.5,369.5C 377.167,369.5 371.833,369.5 366.5,369.5C 366.866,368.305 367.699,367.639 369,367.5C 373.495,367.601 377.995,367.934 382.5,368.5C 383.5,392.157 383.833,415.824 383.5,439.5 Z"/></g>
<g><path style="opacity:1" fill="#e3222c" d="M 164.5,344.5 C 164.833,344.5 165.167,344.5 165.5,344.5C 165.833,344.5 166.167,344.5 166.5,344.5C 165.766,345.708 165.433,347.041 165.5,348.5C 158.536,347.447 151.536,347.28 144.5,348C 143.861,350.411 143.527,352.911 143.5,355.5C 143.386,358.364 143.886,361.03 145,363.5C 145.499,359.179 145.666,354.846 145.5,350.5C 146.5,350.5 147.5,350.5 148.5,350.5C 148.892,356.365 148.059,362.032 146,367.5C 144.889,383.158 144.056,398.824 143.5,414.5C 142.5,414.5 141.5,414.5 140.5,414.5C 140.783,413.711 141.283,413.044 142,412.5C 142.167,409 142.333,405.5 142.5,402C 141.493,383.84 141.326,365.674 142,347.5C 149.599,346.848 157.099,346.182 164.5,345.5C 164.5,345.167 164.5,344.833 164.5,344.5 Z"/></g>
<g><path style="opacity:0.928" fill="#c62f3b" d="M 163.5,367.5 C 160.5,367.5 157.5,367.5 154.5,367.5C 154.5,378.167 154.5,388.833 154.5,399.5C 153.341,388.674 153.174,377.674 154,366.5C 155.569,365.878 157.236,365.544 159,365.5C 160.986,365.569 162.486,366.235 163.5,367.5 Z"/></g>
<g><path style="opacity:1" fill="#c82b31" d="M 356.5,358.5 C 356.5,358.833 356.5,359.167 356.5,359.5C 356.5,380.167 356.5,400.833 356.5,421.5C 356.833,422.167 357.167,422.833 357.5,423.5C 356.25,423.423 355.417,422.756 355,421.5C 354.333,400.833 354.333,380.167 355,359.5C 355.383,358.944 355.883,358.611 356.5,358.5 Z"/></g>
<g><path style="opacity:0.125" fill="#f2bbbe" d="M 356.5,359.5 C 357.167,359.5 357.833,359.5 358.5,359.5C 357.512,379.758 357.179,400.091 357.5,420.5C 360.167,420.5 362.833,420.5 365.5,420.5C 365.17,403.325 365.503,386.325 366.5,369.5C 366.5,386.833 366.5,404.167 366.5,421.5C 363.167,421.5 359.833,421.5 356.5,421.5C 356.5,400.833 356.5,380.167 356.5,359.5 Z"/></g>
<g><path style="opacity:1" fill="#eb1f26" d="M 354.5,299.5 C 355.167,313.167 355.833,326.833 356.5,340.5C 356.5,341.167 356.5,341.833 356.5,342.5C 356.611,343.117 356.944,343.617 357.5,344C 360.888,344.659 364.221,344.492 367.5,343.5C 367.389,344.117 367.056,344.617 366.5,345C 361.771,345.996 357.271,345.496 353,343.5C 352.077,332.003 351.41,320.337 351,308.5C 350.333,307.167 349.667,307.167 349,308.5C 348.167,336.173 348.333,363.839 349.5,391.5C 350.317,380.839 350.484,370.173 350,359.5C 350.333,359.167 350.667,358.833 351,358.5C 351.471,360.246 352.138,361.913 353,363.5C 353.226,360.905 353.726,358.405 354.5,356C 357.696,355.195 360.696,355.362 363.5,356.5C 360.941,356.198 358.607,356.532 356.5,357.5C 356.5,357.833 356.5,358.167 356.5,358.5C 355.883,358.611 355.383,358.944 355,359.5C 354.333,380.167 354.333,400.833 355,421.5C 355.417,422.756 356.25,423.423 357.5,423.5C 360.518,423.665 363.518,423.498 366.5,423C 367.056,422.617 367.389,422.117 367.5,421.5C 369.158,405.854 370.158,389.854 370.5,373.5C 373.827,371.509 376.993,371.509 380,373.5C 380.667,394.5 380.667,415.5 380,436.5C 368.247,437.488 356.414,437.821 344.5,437.5C 343.868,430.733 343.201,424.067 342.5,417.5C 342.5,416.833 342.167,416.5 341.5,416.5C 341.5,416.167 341.5,415.833 341.5,415.5C 342.833,415.5 344.167,415.5 345.5,415.5C 345.5,422.5 345.5,429.5 345.5,436.5C 346.833,436.5 348.167,436.5 349.5,436.5C 349.5,435.5 349.5,434.5 349.5,433.5C 348.5,433.5 347.5,433.5 346.5,433.5C 345.926,428.352 346.593,423.518 348.5,419C 346.464,416.5 346.13,413.833 347.5,411C 345.884,410.385 344.551,409.385 343.5,408C 340.63,407.921 337.964,408.755 335.5,410.5C 319.831,411.754 304.165,411.754 288.5,410.5C 286.833,410.167 285.167,409.833 283.5,409.5C 282.923,407.45 281.59,406.45 279.5,406.5C 280.097,405.861 280.93,405.528 282,405.5C 285.563,409.123 289.397,409.289 293.5,406C 296,405.833 298.5,405.667 301,405.5C 311.32,406.194 321.82,406.194 332.5,405.5C 287.167,404.833 241.833,404.167 196.5,403.5C 245.497,402.667 294.497,402.167 343.5,402C 344.025,401.308 344.692,400.808 345.5,400.5C 348.623,404.584 349.79,403.917 349,398.5C 347.989,399.337 346.822,399.67 345.5,399.5C 345.802,396.941 345.468,394.607 344.5,392.5C 344.5,392.167 344.5,391.833 344.5,391.5C 344.198,361.142 344.531,330.808 345.5,300.5C 348.482,300.037 351.482,299.704 354.5,299.5 Z"/></g>
<g><path style="opacity:0.178" fill="#e49193" d="M 269.5,368.5 C 273.833,368.5 278.167,368.5 282.5,368.5C 282.5,369.167 282.167,369.5 281.5,369.5C 274.5,369.5 267.5,369.5 260.5,369.5C 260.5,376.167 260.5,382.833 260.5,389.5C 259.509,382.687 259.175,375.687 259.5,368.5C 262.833,368.5 266.167,368.5 269.5,368.5 Z"/></g>
<g><path style="opacity:0.802" fill="#bc323b" d="M 281.5,369.5 C 275.5,370.167 269.5,370.833 263.5,371.5C 262.883,371.611 262.383,371.944 262,372.5C 261.501,377.489 261.334,382.489 261.5,387.5C 272.135,388.404 282.802,388.737 293.5,388.5C 282.679,389.495 271.679,389.828 260.5,389.5C 260.5,382.833 260.5,376.167 260.5,369.5C 267.5,369.5 274.5,369.5 281.5,369.5 Z"/></g>
<g><path style="opacity:0.998" fill="#d84142" d="M 263.5,371.5 C 269.5,370.833 275.5,370.167 281.5,369.5C 282.167,369.5 282.5,369.167 282.5,368.5C 282.5,365.5 282.5,362.5 282.5,359.5C 281.5,359.5 280.5,359.5 279.5,359.5C 270.513,360.804 261.513,360.804 252.5,359.5C 251.833,359.5 251.167,359.5 250.5,359.5C 249.506,368.986 249.173,378.652 249.5,388.5C 221.5,388.5 193.5,388.5 165.5,388.5C 165.5,382.167 165.5,375.833 165.5,369.5C 166.477,372.287 166.81,375.287 166.5,378.5C 166.223,381.448 166.556,384.281 167.5,387C 194.498,387.5 221.498,387.667 248.5,387.5C 248.192,377.447 248.525,367.447 249.5,357.5C 260.819,356.334 272.152,356.168 283.5,357C 286.235,361.816 285.901,366.483 282.5,371C 276.175,371.5 269.842,371.666 263.5,371.5 Z"/></g>
<g><path style="opacity:1" fill="#f31a27" d="M 167.5,381.5 C 190.833,381.5 214.167,381.5 237.5,381.5C 237.5,382.5 237.5,383.5 237.5,384.5C 214.167,384.5 190.833,384.5 167.5,384.5C 167.5,383.5 167.5,382.5 167.5,381.5 Z"/></g>
<g><path style="opacity:0.007" fill="#fdd7db" d="M 279.5,359.5 C 280.5,359.5 281.5,359.5 282.5,359.5C 282.5,362.5 282.5,365.5 282.5,368.5C 278.167,368.5 273.833,368.5 269.5,368.5C 273.298,367.517 277.298,367.183 281.5,367.5C 281.868,364.467 281.202,361.8 279.5,359.5 Z"/></g>
<g><path style="opacity:0.529" fill="#dc8488" d="M 163.5,367.5 C 164.833,367.5 165.5,368.167 165.5,369.5C 165.5,375.833 165.5,382.167 165.5,388.5C 193.662,389.498 221.995,389.831 250.5,389.5C 222.005,390.498 193.338,390.831 164.5,390.5C 164.323,383.562 164.156,376.562 164,369.5C 161.599,368.398 159.099,368.231 156.5,369C 155.748,369.671 155.414,370.504 155.5,371.5C 155.5,380.833 155.5,390.167 155.5,399.5C 155.167,399.5 154.833,399.5 154.5,399.5C 154.5,388.833 154.5,378.167 154.5,367.5C 157.5,367.5 160.5,367.5 163.5,367.5 Z"/></g>
<g><path style="opacity:0.771" fill="#c7404a" d="M 250.5,359.5 C 250.5,369.5 250.5,379.5 250.5,389.5C 221.995,389.831 193.662,389.498 165.5,388.5C 193.5,388.5 221.5,388.5 249.5,388.5C 249.173,378.652 249.506,368.986 250.5,359.5 Z"/></g>
<g><path style="opacity:0.108" fill="#fed2ce" d="M 155.5,371.5 C 156.493,380.318 156.827,389.318 156.5,398.5C 165.682,398.173 174.682,398.507 183.5,399.5C 174.167,399.5 164.833,399.5 155.5,399.5C 155.5,390.167 155.5,380.833 155.5,371.5 Z"/></g>
<g><path style="opacity:0.119" fill="#f4bbb6" d="M 342.5,297.5 C 342.5,330.833 342.5,364.167 342.5,397.5C 342.672,398.492 342.338,399.158 341.5,399.5C 292.167,399.5 242.833,399.5 193.5,399.5C 242.335,398.833 291.335,398.167 340.5,397.5C 341.16,364.039 341.827,330.706 342.5,297.5 Z"/></g>
<g><path style="opacity:0.739" fill="#bc454a" d="M 154.5,399.5 C 154.833,399.5 155.167,399.5 155.5,399.5C 164.833,399.5 174.167,399.5 183.5,399.5C 183.5,408.167 183.5,416.833 183.5,425.5C 182.82,417.432 182.153,409.265 181.5,401C 172.84,400.5 164.173,400.334 155.5,400.5C 154.833,400.5 154.5,400.167 154.5,399.5 Z"/></g>
<g><path style="opacity:0.751" fill="#c05051" d="M 193.5,399.5 C 242.833,399.5 292.167,399.5 341.5,399.5C 292.67,400.499 243.67,400.832 194.5,400.5C 194.5,405.5 194.5,410.5 194.5,415.5C 219.167,415.5 243.833,415.5 268.5,415.5C 269.492,415.328 270.158,415.662 270.5,416.5C 245.167,416.5 219.833,416.5 194.5,416.5C 193.186,414.085 192.519,411.252 192.5,408C 192.502,404.979 192.836,402.146 193.5,399.5 Z"/></g>
<g><path style="opacity:0.358" fill="#eb989a" d="M 140.5,344.5 C 148.5,344.5 156.5,344.5 164.5,344.5C 164.5,344.833 164.5,345.167 164.5,345.5C 156.5,345.5 148.5,345.5 140.5,345.5C 140.667,367.836 140.5,390.169 140,412.5C 136.731,413.818 133.565,413.818 130.5,412.5C 132.5,412.5 134.5,412.5 136.5,412.5C 138.252,412.582 139.252,411.749 139.5,410C 138.077,388.005 138.41,366.172 140.5,344.5 Z"/></g>
<g><path style="opacity:1" fill="#cf282f" d="M 343.5,391.5 C 343.833,391.5 344.167,391.5 344.5,391.5C 344.5,391.833 344.5,392.167 344.5,392.5C 344.846,395.602 344.179,398.435 342.5,401C 293.501,401.5 244.501,401.667 195.5,401.5C 195.5,404.167 195.5,406.833 195.5,409.5C 195.286,411.144 195.62,412.644 196.5,414C 220.67,414.168 244.67,414.668 268.5,415.5C 243.833,415.5 219.167,415.5 194.5,415.5C 194.5,410.5 194.5,405.5 194.5,400.5C 243.67,400.832 292.67,400.499 341.5,399.5C 342.338,399.158 342.672,398.492 342.5,397.5C 343.461,395.735 343.795,393.735 343.5,391.5 Z"/></g>
<g><path style="opacity:1" fill="#db232d" d="M 155.5,400.5 C 164.173,400.334 172.84,400.5 181.5,401C 182.153,409.265 182.82,417.432 183.5,425.5C 183.5,425.833 183.5,426.167 183.5,426.5C 181.797,419.187 180.797,411.521 180.5,403.5C 175.544,402.506 170.544,402.173 165.5,402.5C 165.5,403.5 165.5,404.5 165.5,405.5C 164.5,405.5 163.5,405.5 162.5,405.5C 162.5,404.167 162.5,402.833 162.5,401.5C 159.941,401.802 157.607,401.468 155.5,400.5 Z"/></g>
<g><path style="opacity:1" fill="#e62029" d="M 344.5,392.5 C 345.468,394.607 345.802,396.941 345.5,399.5C 346.822,399.67 347.989,399.337 349,398.5C 349.79,403.917 348.623,404.584 345.5,400.5C 344.692,400.808 344.025,401.308 343.5,402C 294.497,402.167 245.497,402.667 196.5,403.5C 241.833,404.167 287.167,404.833 332.5,405.5C 321.82,406.194 311.32,406.194 301,405.5C 298.5,405.667 296,405.833 293.5,406C 289.397,409.289 285.563,409.123 282,405.5C 280.93,405.528 280.097,405.861 279.5,406.5C 278.211,407.501 276.878,407.334 275.5,406C 262.537,405.977 250.704,405.81 240,405.5C 227.242,406.323 214.409,406.823 201.5,407C 199.155,407.236 197.155,408.07 195.5,409.5C 195.5,406.833 195.5,404.167 195.5,401.5C 244.501,401.667 293.501,401.5 342.5,401C 344.179,398.435 344.846,395.602 344.5,392.5 Z"/></g>
<g><path style="opacity:1" fill="#db2a36" d="M 166.5,436.5 C 166.167,436.5 165.833,436.5 165.5,436.5C 165.5,431.5 165.5,426.5 165.5,421.5C 162.167,421.5 158.833,421.5 155.5,421.5C 155.167,421.5 154.833,421.5 154.5,421.5C 154.5,420.5 154.5,419.5 154.5,418.5C 158.721,419.192 162.387,418.192 165.5,415.5C 167.401,416.935 167.734,418.602 166.5,420.5C 167.489,421.468 168.156,422.635 168.5,424C 167.785,428.172 167.119,432.338 166.5,436.5 Z"/></g>
<g><path style="opacity:0.053" fill="#f4b4b8" d="M 293.5,416.5 C 309.5,416.5 325.5,416.5 341.5,416.5C 341.5,416.833 341.5,417.167 341.5,417.5C 325.833,417.5 310.167,417.5 294.5,417.5C 294.5,420.167 294.5,422.833 294.5,425.5C 307.344,425.171 320.011,425.505 332.5,426.5C 319.5,426.5 306.5,426.5 293.5,426.5C 293.5,423.167 293.5,419.833 293.5,416.5 Z"/></g>
<g><path style="opacity:0.291" fill="#ecabab" d="M 183.5,399.5 C 184.18,407.902 184.846,416.402 185.5,425C 212.833,425.667 240.167,425.667 267.5,425C 269.291,422.894 269.958,420.394 269.5,417.5C 244.328,417.831 219.328,417.498 194.5,416.5C 219.833,416.5 245.167,416.5 270.5,416.5C 270.5,419.833 270.5,423.167 270.5,426.5C 241.5,426.5 212.5,426.5 183.5,426.5C 183.5,426.167 183.5,425.833 183.5,425.5C 183.5,416.833 183.5,408.167 183.5,399.5 Z"/></g>
<g><path style="opacity:1" fill="#ce2e33" d="M 270.5,416.5 C 271.117,416.611 271.617,416.944 272,417.5C 272.929,421.244 272.429,424.744 270.5,428C 241.833,428.667 213.167,428.667 184.5,428C 183.944,427.617 183.611,427.117 183.5,426.5C 212.5,426.5 241.5,426.5 270.5,426.5C 270.5,423.167 270.5,419.833 270.5,416.5 Z"/></g>
<g><path style="opacity:0.424" fill="#e29392" d="M 154.5,421.5 C 154.833,421.5 155.167,421.5 155.5,421.5C 155.5,421.833 155.5,422.167 155.5,422.5C 156.833,427.5 156.833,432.5 155.5,437.5C 155.167,437.5 154.833,437.5 154.5,437.5C 154.5,432.167 154.5,426.833 154.5,421.5 Z"/></g>
<g><path style="opacity:0.345" fill="#df8f90" d="M 155.5,422.5 C 155.5,422.167 155.5,421.833 155.5,421.5C 158.833,421.5 162.167,421.5 165.5,421.5C 165.5,426.5 165.5,431.5 165.5,436.5C 165.5,437.5 165.5,438.5 165.5,439.5C 164.147,433.939 163.814,428.272 164.5,422.5C 161.5,422.5 158.5,422.5 155.5,422.5 Z"/></g>
<g><path style="opacity:1" fill="#e62429" d="M 341.5,415.5 C 341.5,415.833 341.5,416.167 341.5,416.5C 325.5,416.5 309.5,416.5 293.5,416.5C 291.078,417.692 290.078,419.692 290.5,422.5C 290.326,424.693 290.993,426.527 292.5,428C 304.674,428.169 316.674,428.669 328.5,429.5C 317.162,429.333 305.828,429.5 294.5,430C 305.303,429.923 315.969,430.923 326.5,433C 324.744,433.202 323.078,433.702 321.5,434.5C 274.838,435.5 228.171,435.833 181.5,435.5C 181.5,434.5 181.5,433.5 181.5,432.5C 185.897,431.91 190.23,431.91 194.5,432.5C 195.308,432.192 195.975,431.692 196.5,431C 219.498,430.5 242.498,430.333 265.5,430.5C 265.351,431.552 265.517,432.552 266,433.5C 271.093,432.69 276.259,432.69 281.5,433.5C 282.115,429.03 281.115,425.03 278.5,421.5C 278.808,420.692 279.308,420.025 280,419.5C 281.952,421.337 282.952,423.671 283,426.5C 286.044,427.803 287.211,430.136 286.5,433.5C 288.167,433.5 289.833,433.5 291.5,433.5C 289.995,429.478 288.995,425.311 288.5,421C 288.34,418.53 289.007,416.364 290.5,414.5C 299,414.167 307.5,413.833 316,413.5C 324.861,413.502 333.361,414.169 341.5,415.5 Z"/></g>
<g><path style="opacity:1" fill="#d62630" d="M 293.5,416.5 C 293.5,419.833 293.5,423.167 293.5,426.5C 305.989,427.495 318.656,427.829 331.5,427.5C 331.5,431.167 331.5,434.833 331.5,438.5C 276.331,438.832 221.331,438.499 166.5,437.5C 220.833,437.5 275.167,437.5 329.5,437.5C 329.806,434.615 329.473,431.948 328.5,429.5C 316.674,428.669 304.674,428.169 292.5,428C 290.993,426.527 290.326,424.693 290.5,422.5C 290.078,419.692 291.078,417.692 293.5,416.5 Z"/></g>
<g><path style="opacity:0.826" fill="#c05653" d="M 293.5,426.5 C 306.5,426.5 319.5,426.5 332.5,426.5C 333.823,430.9 333.823,435.4 332.5,440C 276.665,440.832 220.998,440.665 165.5,439.5C 165.5,438.5 165.5,437.5 165.5,436.5C 165.833,436.5 166.167,436.5 166.5,436.5C 166.5,436.833 166.5,437.167 166.5,437.5C 221.331,438.499 276.331,438.832 331.5,438.5C 331.5,434.833 331.5,431.167 331.5,427.5C 318.656,427.829 305.989,427.495 293.5,426.5 Z"/></g>
<g><path style="opacity:0.825" fill="#b63038" d="M 366.5,369.5 C 371.833,369.5 377.167,369.5 382.5,369.5C 382.5,392.833 382.5,416.167 382.5,439.5C 369.167,439.5 355.833,439.5 342.5,439.5C 342.5,432.167 342.5,424.833 342.5,417.5C 343.201,424.067 343.868,430.733 344.5,437.5C 356.569,438.83 368.735,438.83 381,437.5C 381.667,415.5 381.667,393.5 381,371.5C 377.256,370.374 373.423,370.207 369.5,371C 368.809,372.067 368.309,373.234 368,374.5C 367.5,390.163 367.333,405.83 367.5,421.5C 367.389,422.117 367.056,422.617 366.5,423C 363.518,423.498 360.518,423.665 357.5,423.5C 357.167,422.833 356.833,422.167 356.5,421.5C 359.833,421.5 363.167,421.5 366.5,421.5C 366.5,404.167 366.5,386.833 366.5,369.5 Z"/></g>
<g><path style="opacity:1" fill="#da252f" d="M 344.5,437.5 C 356.414,437.821 368.247,437.488 380,436.5C 380.667,415.5 380.667,394.5 380,373.5C 376.993,371.509 373.827,371.509 370.5,373.5C 370.158,389.854 369.158,405.854 367.5,421.5C 367.333,405.83 367.5,390.163 368,374.5C 368.309,373.234 368.809,372.067 369.5,371C 373.423,370.207 377.256,370.374 381,371.5C 381.667,393.5 381.667,415.5 381,437.5C 368.735,438.83 356.569,438.83 344.5,437.5 Z"/></g>
<g><path style="opacity:0.163" fill="#d29291" d="M 154.5,437.5 C 154.833,437.5 155.167,437.5 155.5,437.5C 155.5,438.5 155.5,439.5 155.5,440.5C 141.656,440.829 127.99,440.496 114.5,439.5C 128.209,440.148 141.542,439.481 154.5,437.5 Z"/></g>
<g><path style="opacity:0.182" fill="#d59394" d="M 341.5,416.5 C 342.167,416.5 342.5,416.833 342.5,417.5C 342.5,424.833 342.5,432.167 342.5,439.5C 355.833,439.5 369.167,439.5 382.5,439.5C 382.833,439.5 383.167,439.5 383.5,439.5C 369.677,440.496 355.677,440.829 341.5,440.5C 341.5,432.833 341.5,425.167 341.5,417.5C 341.5,417.167 341.5,416.833 341.5,416.5 Z"/></g>
</svg>
